<svg xmlns="http://www.w3.org/2000/svg" xmlns:xlink="http://www.w3.org/1999/xlink" version="1.1" width="400" height="380" viewBox="0 0 300 285.12" role="img"><title>Точное, будь то номер заказа, код или дата, давай ей в тексте и проси повторить дословно, а не пересказывать; буквы считает инструмент.</title>
<defs>
<clipPath id="clip_1">
<path transform="matrix(.24,0,0,.24,0,0)" d="M0 0H1250V1187.5H0Z" clip-rule="evenodd"/>
</clipPath>
<path id="font_2_501" d="M.765 0H.478V.035C.485 .035 .497 .036 .511 .038 .526 .039 .536 .041 .542 .044 .552 .047 .559 .053 .563 .061 .568 .069 .57 .08 .57 .092V.339H.245V.098C.245 .086 .247 .077 .25 .069 .254 .061 .261 .054 .272 .048 .278 .046 .288 .043 .302 .04 .316 .037 .327 .035 .335 .035V0H.048V.035C.056 .035 .067 .036 .082 .038 .097 .039 .107 .041 .112 .044 .122 .047 .129 .053 .134 .061 .138 .069 .141 .08 .141 .092V.593C.141 .603 .139 .613 .134 .621 .13 .63 .123 .637 .112 .641 .104 .646 .093 .649 .08 .653 .068 .656 .057 .658 .048 .659V.693H.335V.659C.326 .658 .315 .657 .302 .654 .289 .652 .279 .649 .272 .647 .261 .643 .254 .636 .25 .627 .247 .618 .245 .608 .245 .598V.383H.57V.593C.57 .603 .568 .613 .564 .621 .56 .63 .552 .637 .542 .642 .533 .646 .523 .649 .51 .653 .497 .656 .487 .658 .478 .659V.693H.765V.659C.756 .658 .745 .657 .732 .654 .719 .652 .709 .649 .702 .647 .691 .643 .684 .636 .68 .627 .676 .618 .674 .608 .674 .598V.098C.674 .086 .676 .077 .68 .069 .684 .061 .691 .054 .702 .048 .708 .046 .718 .043 .732 .04 .746 .037 .757 .035 .765 .035V0Z"/>
<path id="font_2_534" d="M.504 .246C.504 .212 .499 .178 .488 .146 .478 .113 .462 .085 .442 .062 .42 .036 .394 .017 .364 .004 .335-.008 .301-.015 .265-.015 .234-.015 .205-.009 .177 .003 .15 .014 .125 .031 .104 .053 .082 .075 .066 .102 .053 .133 .04 .164 .034 .2 .034 .239 .034 .314 .056 .375 .1 .423 .144 .471 .201 .495 .272 .495 .339 .495 .395 .472 .439 .427 .483 .382 .504 .321 .504 .246M.403 .245C.403 .269 .401 .295 .396 .322 .391 .349 .384 .372 .374 .391 .364 .411 .35 .427 .333 .44 .316 .452 .295 .458 .271 .458 .246 .458 .225 .452 .207 .439 .189 .427 .175 .41 .164 .389 .153 .369 .146 .346 .142 .321 .137 .295 .135 .271 .135 .247 .135 .216 .138 .187 .143 .16 .148 .134 .156 .11 .167 .089 .178 .069 .192 .052 .209 .04 .226 .028 .246 .022 .271 .022 .312 .022 .344 .042 .368 .082 .391 .121 .403 .175 .403 .245Z"/>
<path id="font_2_532" d="M.681 0H.445V.032C.453 .033 .461 .034 .469 .034 .476 .035 .483 .036 .489 .038 .499 .041 .506 .046 .511 .054 .516 .062 .519 .071 .519 .082V.431H.507L.344 .008H.313L.16 .439H.149V.102C.149 .085 .152 .072 .156 .062 .161 .053 .168 .047 .177 .043 .184 .04 .191 .037 .199 .036 .207 .034 .215 .033 .224 .032V0H.036V.032C.044 .033 .051 .034 .059 .034 .067 .035 .074 .036 .08 .038 .09 .041 .097 .048 .101 .057 .105 .067 .107 .08 .107 .097V.39C.107 .402 .105 .413 .1 .421 .096 .429 .089 .435 .08 .438 .071 .442 .063 .445 .055 .446 .047 .448 .04 .449 .033 .449V.481H.233L.354 .137 .46 .422C.463 .432 .467 .443 .471 .456 .475 .469 .477 .478 .477 .481H.679V.449C.67 .449 .662 .448 .655 .447 .648 .446 .641 .445 .635 .443 .626 .441 .619 .436 .615 .428 .611 .42 .608 .411 .608 .399V.087C.608 .076 .61 .066 .614 .059 .618 .052 .625 .047 .634 .043 .641 .04 .649 .037 .656 .036 .664 .034 .673 .033 .681 .032V0Z"/>
<path id="font_2_525" d="M.463 .114C.443 .075 .416 .044 .382 .022 .348-.001 .309-.013 .265-.013 .226-.013 .192-.006 .163 .008 .134 .021 .11 .04 .091 .063 .072 .087 .058 .114 .049 .146 .04 .177 .035 .21 .035 .245 .035 .276 .04 .307 .05 .337 .06 .367 .075 .394 .094 .418 .112 .441 .135 .46 .163 .474 .19 .488 .221 .495 .255 .495 .291 .495 .321 .49 .346 .479 .371 .467 .391 .452 .407 .433 .422 .415 .433 .393 .44 .369 .448 .344 .451 .317 .451 .288V.256H.132C.132 .224 .135 .196 .141 .17 .147 .144 .157 .121 .17 .102 .183 .083 .199 .068 .22 .057 .24 .046 .265 .041 .293 .041 .322 .041 .347 .047 .368 .061 .389 .075 .409 .099 .429 .135L.463 .114M.355 .297C.355 .315 .353 .335 .35 .355 .347 .376 .342 .393 .335 .407 .328 .422 .318 .434 .305 .444 .292 .453 .275 .458 .254 .458 .22 .458 .192 .444 .169 .415 .147 .387 .134 .348 .132 .297H.355Z"/>
<path id="font_2_536" d="M.475 .425C.494 .402 .509 .375 .52 .345 .53 .315 .536 .281 .536 .242 .536 .204 .529 .169 .517 .138 .504 .106 .487 .079 .466 .057 .444 .035 .42 .017 .394 .005 .367-.007 .339-.013 .309-.013 .28-.013 .256-.009 .237-.003 .219 .004 .204 .011 .192 .02H.188V-.125C.188-.137 .19-.146 .195-.154 .199-.162 .206-.168 .216-.171 .224-.174 .235-.177 .249-.18 .264-.183 .276-.184 .285-.185V-.217H.016V-.185C.026-.184 .036-.183 .045-.182 .055-.181 .063-.18 .071-.177 .081-.174 .087-.168 .091-.16 .095-.152 .097-.142 .097-.131V.381C.097 .391 .095 .4 .09 .409 .085 .418 .079 .426 .071 .431 .065 .435 .057 .438 .046 .44 .036 .442 .026 .444 .016 .444V.477L.18 .487 .187 .481V.429L.191 .428C.208 .447 .229 .463 .254 .476 .279 .489 .304 .495 .329 .495 .359 .495 .386 .489 .411 .476 .436 .463 .457 .446 .475 .425M.396 .078C.409 .099 .418 .122 .424 .149 .431 .176 .434 .206 .434 .239 .434 .263 .431 .287 .426 .312 .421 .338 .412 .36 .401 .378 .39 .397 .376 .412 .358 .424 .34 .436 .319 .442 .293 .442 .269 .442 .249 .437 .232 .426 .215 .415 .2 .403 .188 .388V.102C.191 .093 .196 .084 .202 .075 .209 .065 .216 .057 .225 .05 .235 .042 .246 .036 .257 .031 .269 .026 .283 .023 .3 .023 .319 .023 .336 .028 .353 .037 .37 .047 .384 .061 .396 .078Z"/>
<path id="font_2_3" d=""/>
<path id="font_2_527" d="M.433 .139C.433 .094 .413 .057 .373 .029 .333 .001 .28-.013 .215-.013 .186-.013 .16-.009 .136-.003 .113 .004 .093 .013 .077 .024 .062 .036 .05 .049 .042 .063 .034 .077 .03 .093 .03 .11 .03 .125 .034 .137 .042 .146 .049 .155 .062 .16 .078 .16 .096 .16 .109 .155 .118 .146 .127 .137 .132 .127 .132 .117 .132 .107 .13 .096 .128 .083 .125 .07 .123 .06 .121 .053 .129 .045 .141 .038 .158 .032 .174 .027 .193 .024 .215 .024 .249 .024 .277 .034 .299 .055 .322 .075 .333 .103 .333 .14 .333 .151 .332 .162 .329 .173 .326 .184 .32 .194 .312 .203 .304 .212 .293 .219 .279 .225 .265 .23 .246 .233 .224 .233H.172V.278H.214C.253 .278 .281 .287 .296 .303 .312 .319 .32 .345 .32 .379 .32 .403 .312 .423 .297 .437 .282 .451 .262 .458 .235 .458 .216 .458 .199 .454 .184 .446 .169 .437 .155 .426 .143 .411 .131 .398 .121 .383 .113 .366 .104 .348 .097 .332 .091 .316H.059L.062 .491H.094L.112 .464C.128 .472 .148 .479 .171 .485 .194 .492 .219 .495 .248 .495 .284 .495 .313 .491 .335 .482 .358 .474 .375 .463 .388 .451 .4 .439 .408 .427 .412 .414 .416 .401 .418 .39 .418 .381 .418 .37 .417 .359 .413 .347 .41 .336 .403 .325 .394 .314 .385 .304 .372 .294 .356 .285 .34 .276 .32 .27 .295 .265V.258C.311 .258 .326 .255 .343 .251 .359 .247 .374 .24 .387 .231 .402 .221 .413 .208 .421 .193 .429 .178 .433 .16 .433 .139Z"/>
<path id="font_2_520" d="M.491 .009C.476 .003 .462-.001 .451-.005 .439-.008 .426-.01 .412-.01 .386-.01 .366-.004 .351 .008 .336 .02 .326 .037 .322 .06H.319C.298 .037 .275 .019 .251 .006 .226-.006 .197-.013 .163-.013 .127-.013 .097-.002 .074 .021 .051 .043 .039 .072 .039 .108 .039 .126 .042 .143 .047 .157 .052 .172 .06 .185 .07 .197 .078 .207 .089 .216 .103 .223 .116 .231 .128 .237 .14 .242 .155 .247 .184 .257 .229 .272 .274 .287 .304 .299 .32 .308V.356C.32 .36 .319 .368 .317 .38 .315 .392 .312 .404 .306 .414 .299 .427 .29 .437 .278 .446 .266 .455 .249 .459 .228 .459 .213 .459 .199 .457 .186 .452 .173 .447 .164 .441 .159 .436 .159 .429 .16 .42 .163 .407 .166 .394 .168 .382 .168 .372 .168 .36 .163 .35 .153 .34 .142 .331 .128 .326 .11 .326 .094 .326 .082 .332 .074 .344 .066 .355 .062 .368 .062 .382 .062 .398 .068 .412 .078 .426 .089 .439 .103 .452 .12 .462 .134 .471 .152 .479 .173 .486 .194 .492 .214 .495 .234 .495 .261 .495 .285 .493 .305 .49 .326 .486 .344 .478 .361 .465 .377 .453 .39 .437 .399 .416 .407 .396 .412 .369 .412 .336 .412 .29 .411 .249 .41 .213 .409 .177 .409 .137 .409 .095 .409 .082 .411 .072 .415 .064 .42 .057 .426 .051 .436 .045 .44 .042 .448 .041 .459 .041 .469 .04 .48 .04 .491 .04V.009M.321 .267C.293 .258 .269 .25 .248 .243 .227 .235 .208 .225 .19 .213 .174 .202 .161 .189 .151 .174 .142 .159 .137 .14 .137 .12 .137 .092 .144 .072 .158 .06 .173 .047 .191 .041 .212 .041 .236 .041 .256 .046 .273 .058 .291 .069 .306 .082 .318 .097L.321 .267Z"/>
<path id="font_2_530" d="M.546 0H.38C.372 .027 .365 .05 .358 .069 .352 .088 .342 .11 .33 .135 .314 .165 .297 .188 .279 .201 .261 .215 .237 .222 .208 .222H.197V.087C.197 .076 .199 .067 .204 .06 .208 .052 .215 .047 .224 .043 .231 .04 .238 .037 .246 .036 .254 .034 .263 .033 .271 .032V0H.036V.032C.044 .033 .051 .034 .059 .034 .067 .035 .074 .036 .08 .038 .089 .041 .096 .046 .1 .053 .105 .061 .107 .07 .107 .082V.395C.107 .405 .105 .414 .1 .422 .096 .429 .089 .435 .08 .438 .071 .442 .063 .445 .055 .446 .047 .448 .04 .449 .033 .449V.481H.268V.449C.258 .449 .25 .448 .243 .447 .236 .446 .229 .445 .224 .443 .215 .441 .208 .436 .203 .428 .199 .42 .197 .411 .197 .4V.259H.228C.238 .259 .249 .261 .26 .265 .271 .269 .279 .275 .287 .283 .296 .292 .304 .305 .311 .321 .318 .337 .324 .352 .329 .366 .334 .381 .34 .396 .347 .411 .354 .427 .36 .439 .367 .447 .379 .462 .392 .472 .406 .478 .42 .484 .435 .487 .452 .487 .477 .487 .495 .482 .507 .471 .519 .46 .524 .447 .524 .43 .524 .416 .52 .404 .51 .394 .501 .384 .489 .379 .474 .379 .459 .379 .448 .383 .439 .39 .431 .398 .419 .41 .405 .428 .399 .423 .393 .411 .387 .394 .381 .376 .376 .36 .371 .347 .361 .321 .351 .3 .341 .286 .33 .272 .318 .26 .305 .251V.245C.334 .239 .358 .228 .375 .213 .393 .197 .407 .177 .419 .153 .425 .142 .432 .128 .439 .112 .447 .095 .451 .084 .454 .079 .46 .064 .468 .054 .477 .049 .486 .044 .495 .04 .502 .039 .51 .037 .517 .036 .525 .035 .533 .034 .54 .033 .546 .032V0Z"/>
<path id="font_2_29" d="M.223 .417C.223 .398 .217 .383 .203 .37 .19 .357 .174 .35 .156 .35 .138 .35 .122 .357 .109 .37 .096 .383 .089 .398 .089 .417 .089 .435 .096 .45 .109 .464 .122 .477 .138 .483 .156 .483 .175 .483 .191 .477 .204 .464 .217 .45 .223 .435 .223 .417M.223 .056C.223 .038 .217 .022 .203 .01 .19-.003 .174-.01 .156-.01 .138-.01 .122-.003 .109 .01 .096 .022 .089 .038 .089 .056 .089 .074 .096 .09 .109 .103 .122 .116 .138 .123 .156 .123 .174 .123 .19 .116 .203 .103 .217 .09 .223 .074 .223 .056Z"/>
<path id="font_2_524" d="M.055 .039C.087 .082 .115 .138 .139 .207 .163 .277 .175 .334 .175 .378 .175 .395 .173 .407 .168 .415 .164 .424 .158 .43 .148 .435 .142 .438 .132 .441 .118 .444 .104 .446 .093 .448 .084 .449V.481H.522V.449C.513 .449 .505 .448 .498 .447 .491 .446 .484 .445 .479 .443 .469 .441 .463 .436 .458 .428 .454 .42 .452 .411 .452 .399V.087C.452 .07 .455 .057 .462 .05 .468 .043 .482 .039 .504 .039H.535V-.142H.5C.493-.109 .482-.077 .465-.048 .449-.019 .431-.002 .413 .002H.129C.111-.001 .094-.017 .075-.047 .057-.077 .045-.108 .039-.142H.003V.039H.055M.11 .039H.321C.335 .039 .345 .042 .352 .047 .358 .052 .361 .059 .361 .07V.441H.227C.225 .359 .213 .283 .193 .215 .172 .146 .145 .088 .11 .039Z"/>
<path id="font_2_537" d="M.258-.013C.188-.013 .134 .01 .094 .057 .055 .103 .035 .165 .035 .243 .035 .277 .04 .308 .051 .338 .062 .367 .077 .394 .097 .418 .116 .441 .14 .46 .169 .474 .198 .488 .23 .495 .264 .495 .311 .495 .35 .484 .379 .461 .409 .439 .424 .408 .424 .369 .424 .352 .42 .338 .412 .325 .404 .313 .391 .307 .374 .307 .354 .307 .339 .312 .329 .321 .318 .331 .313 .342 .313 .354 .313 .368 .315 .383 .319 .399 .323 .414 .325 .426 .326 .433 .32 .443 .311 .449 .3 .453 .288 .456 .276 .458 .262 .458 .247 .458 .232 .455 .218 .448 .203 .441 .19 .429 .176 .411 .164 .395 .154 .373 .147 .345 .139 .318 .136 .285 .136 .246 .136 .186 .149 .136 .176 .098 .203 .06 .238 .041 .282 .041 .313 .041 .34 .048 .361 .064 .382 .079 .402 .102 .42 .133L.452 .112C.43 .074 .402 .043 .367 .021 .332-.001 .295-.013 .258-.013Z"/>
<path id="font_2_531" d="M.547 0H.312V.032C.319 .033 .327 .034 .334 .034 .342 .035 .349 .036 .355 .038 .364 .041 .371 .046 .376 .053 .381 .061 .383 .07 .383 .082V.441H.25C.25 .362 .244 .294 .233 .236 .222 .179 .208 .132 .19 .096 .173 .061 .153 .034 .131 .017 .11-.001 .087-.01 .064-.01 .041-.01 .023-.004 .011 .009-.001 .021-.007 .035-.007 .052-.007 .063-.003 .074 .005 .085 .012 .095 .023 .101 .038 .101 .052 .101 .064 .097 .075 .089 .086 .081 .097 .07 .107 .056 .115 .063 .124 .076 .135 .095 .146 .115 .155 .139 .164 .167 .174 .198 .182 .23 .188 .264 .194 .297 .197 .335 .197 .378 .197 .395 .195 .407 .191 .416 .187 .424 .18 .43 .171 .435 .165 .438 .155 .441 .141 .444 .127 .446 .115 .448 .106 .449V.481H.545V.449C.535 .449 .527 .448 .52 .447 .513 .446 .507 .445 .501 .443 .492 .441 .485 .436 .481 .428 .476 .42 .474 .411 .474 .399V.087C.474 .076 .476 .066 .48 .059 .484 .052 .491 .047 .5 .043 .507 .04 .514 .037 .522 .036 .53 .034 .538 .033 .547 .032V0Z"/>
<path id="font_2_522" d="M.383 .141C.383 .169 .373 .192 .352 .208 .33 .225 .3 .233 .261 .233 .243 .233 .23 .233 .22 .232 .21 .232 .202 .231 .197 .231V.072C.197 .06 .202 .05 .213 .043 .224 .036 .24 .032 .262 .032 .286 .032 .306 .035 .322 .042 .338 .048 .351 .056 .36 .067 .369 .077 .375 .089 .378 .101 .382 .113 .383 .127 .383 .141M.481 .134C.481 .11 .476 .09 .465 .073 .454 .055 .439 .041 .42 .03 .403 .02 .383 .013 .361 .008 .339 .003 .316 0 .291 0H.036V.032C.044 .033 .051 .034 .059 .034 .067 .035 .074 .036 .08 .038 .089 .041 .096 .046 .1 .053 .105 .061 .107 .07 .107 .082V.395C.107 .405 .105 .414 .1 .422 .096 .429 .089 .435 .08 .438 .071 .442 .063 .445 .055 .446 .047 .448 .04 .449 .033 .449V.481C.062 .481 .098 .482 .14 .482 .183 .482 .228 .482 .274 .482 .299 .482 .322 .481 .344 .477 .365 .474 .384 .468 .4 .46 .418 .451 .431 .44 .44 .425 .45 .411 .455 .393 .455 .373 .455 .341 .445 .315 .425 .296 .405 .278 .378 .265 .346 .258V.253C.362 .25 .379 .247 .395 .241 .411 .236 .425 .229 .438 .22 .451 .21 .461 .199 .469 .185 .477 .171 .481 .154 .481 .134M.358 .37C.358 .386 .355 .399 .349 .41 .343 .42 .335 .428 .325 .434 .315 .44 .303 .444 .291 .446 .278 .448 .265 .449 .252 .449 .243 .449 .234 .449 .224 .448 .214 .448 .205 .448 .197 .447V.271H.244C.267 .271 .285 .273 .301 .278 .316 .284 .328 .291 .335 .299 .344 .308 .349 .318 .353 .33 .356 .342 .358 .355 .358 .37Z"/>
<path id="font_2_533" d="M.575 0H.339V.032C.347 .033 .355 .034 .363 .034 .371 .035 .377 .036 .383 .038 .392 .041 .399 .046 .404 .053 .409 .061 .412 .07 .412 .082V.235H.197V.087C.197 .076 .2 .067 .204 .06 .209 .052 .215 .047 .225 .043 .231 .04 .239 .037 .247 .036 .255 .034 .263 .033 .271 .032V0H.036V.032C.044 .033 .051 .034 .059 .034 .067 .035 .074 .036 .08 .038 .089 .041 .096 .046 .1 .053 .105 .061 .107 .07 .107 .082V.395C.107 .405 .105 .414 .1 .422 .096 .429 .089 .435 .08 .438 .071 .442 .063 .445 .055 .446 .047 .448 .04 .449 .033 .449V.481H.268V.449C.259 .449 .25 .448 .243 .447 .236 .446 .23 .445 .224 .443 .215 .441 .208 .436 .204 .428 .199 .42 .197 .411 .197 .399V.275H.412V.395C.412 .405 .409 .414 .405 .422 .4 .429 .393 .435 .384 .438 .376 .442 .368 .445 .36 .446 .352 .448 .344 .449 .337 .449V.481H.573V.449C.563 .449 .555 .448 .548 .447 .541 .446 .535 .445 .529 .443 .52 .441 .513 .436 .509 .428 .504 .42 .502 .411 .502 .399V.087C.502 .076 .504 .066 .508 .059 .512 .052 .518 .047 .528 .043 .535 .04 .542 .037 .55 .036 .558 .034 .566 .033 .575 .032V0Z"/>
<path id="font_2_23" d="M.529 .044H.43V-.179H.336V.044H.024V.119L.366 .537H.43V.108H.529V.044M.336 .108V.428L.073 .108H.336Z"/>
<path id="font_2_27" d="M.545 .184C.545 .129 .522 .083 .475 .043 .427 .004 .365-.016 .289-.016 .217-.016 .159 .002 .116 .038 .072 .074 .051 .121 .051 .178 .051 .22 .064 .255 .089 .283 .115 .311 .153 .335 .203 .354 .161 .377 .13 .402 .11 .43 .089 .458 .079 .489 .079 .523 .079 .576 .102 .621 .147 .656 .192 .692 .246 .71 .309 .71 .371 .71 .422 .693 .461 .659 .5 .626 .52 .583 .52 .532 .52 .499 .509 .468 .487 .439 .466 .41 .434 .385 .393 .367 .447 .344 .486 .318 .51 .29 .533 .262 .545 .227 .545 .184M.427 .537C.427 .577 .415 .609 .392 .634 .368 .659 .338 .671 .301 .671 .264 .671 .234 .659 .211 .636 .188 .612 .176 .582 .176 .547 .176 .513 .189 .484 .216 .46 .243 .436 .29 .411 .358 .384 .383 .4 .4 .42 .411 .446 .422 .472 .427 .502 .427 .537M.448 .162C.448 .182 .443 .2 .435 .215 .426 .231 .413 .245 .396 .257 .381 .27 .358 .283 .33 .296 .301 .309 .271 .323 .237 .337 .206 .32 .183 .299 .168 .273 .154 .247 .146 .217 .146 .184 .146 .136 .161 .098 .189 .068 .217 .039 .254 .024 .301 .024 .346 .024 .382 .037 .408 .063 .435 .089 .448 .122 .448 .162Z"/>
<path id="font_2_16" d="M.333 .227H.042V.304H.333V.227Z"/>
<path id="font_2_21" d="M.511 0H.054V.067C.062 .077 .075 .088 .09 .101 .106 .113 .125 .127 .146 .142 .159 .15 .175 .16 .193 .17 .211 .181 .232 .192 .255 .205 .281 .218 .3 .23 .314 .241 .328 .251 .341 .264 .352 .279 .36 .289 .366 .302 .37 .317 .375 .332 .377 .354 .377 .382 .377 .423 .366 .452 .344 .471 .322 .49 .294 .5 .26 .5 .239 .5 .219 .496 .2 .488 .181 .479 .167 .468 .158 .453 .16 .443 .163 .431 .166 .416 .17 .402 .171 .388 .171 .374 .171 .362 .166 .351 .156 .342 .146 .332 .131 .327 .11 .327 .094 .327 .082 .333 .073 .344 .064 .355 .06 .37 .06 .389 .06 .407 .064 .424 .074 .442 .084 .46 .098 .476 .116 .491 .134 .505 .156 .517 .183 .526 .209 .535 .237 .54 .268 .54 .335 .54 .388 .525 .427 .495 .466 .466 .486 .426 .486 .376 .486 .352 .482 .331 .475 .311 .468 .292 .457 .274 .441 .259 .424 .243 .404 .228 .381 .217 .358 .205 .322 .188 .275 .167 .247 .154 .22 .141 .196 .127 .171 .113 .151 .1 .136 .087H.511V0Z"/>
<path id="font_2_20" d="M.395 0H.066V.035C.076 .035 .091 .037 .112 .039 .132 .041 .146 .043 .154 .046 .164 .049 .172 .054 .177 .061 .183 .069 .186 .08 .186 .095V.438H.064V.479H.091C.126 .479 .157 .485 .185 .498 .213 .511 .233 .525 .245 .54H.286C.285 .519 .284 .494 .283 .466 .282 .437 .281 .412 .281 .39V.1C.281 .088 .284 .078 .289 .069 .294 .06 .301 .054 .311 .049 .319 .046 .333 .043 .352 .04 .371 .037 .386 .035 .395 .035V0Z"/>
<path id="font_2_26" d="M.502 .493 .154-.179H.093L.421 .442H.229C.201 .442 .179 .442 .163 .441 .147 .441 .132 .438 .119 .432 .109 .428 .1 .417 .092 .4 .084 .382 .077 .36 .073 .333H.043V.524H.502V.493Z"/>
<path id="font_2_538" d="M.46 .327H.43C.427 .336 .423 .347 .417 .359 .412 .371 .405 .383 .398 .394 .391 .406 .383 .416 .374 .426 .365 .435 .356 .44 .346 .441 .336 .442 .325 .443 .312 .444 .3 .444 .29 .444 .281 .444V.087C.281 .076 .283 .067 .288 .059 .292 .052 .299 .047 .308 .043 .315 .04 .323 .037 .333 .036 .342 .034 .351 .033 .359 .032V0H.114V.032C.122 .033 .13 .034 .14 .034 .149 .035 .157 .036 .163 .038 .172 .041 .179 .046 .183 .053 .188 .061 .19 .07 .19 .082V.444C.18 .444 .168 .444 .155 .443 .142 .443 .132 .442 .124 .441 .116 .441 .107 .435 .097 .425 .087 .415 .079 .405 .072 .394 .065 .383 .059 .371 .053 .357 .047 .344 .043 .334 .041 .327H.011V.481H.46V.327Z"/>
<path id="font_2_5" d="M.354 .692C.354 .679 .35 .654 .341 .617 .333 .58 .323 .532 .313 .473H.283C.275 .521 .267 .567 .258 .61 .248 .654 .244 .681 .244 .692 .244 .707 .248 .72 .257 .731 .266 .742 .28 .747 .299 .747 .317 .747 .33 .742 .34 .731 .349 .72 .354 .707 .354 .692M.167 .692C.167 .679 .163 .654 .155 .617 .146 .58 .137 .532 .126 .473H.097C.088 .528 .079 .575 .071 .615 .062 .654 .058 .68 .058 .692 .058 .707 .062 .72 .071 .731 .08 .742 .094 .747 .113 .747 .13 .747 .144 .742 .153 .731 .163 .72 .167 .707 .167 .692Z"/>
<path id="font_2_535" d="M.567 0H.332V.032C.34 .033 .347 .034 .355 .034 .363 .035 .37 .036 .375 .038 .385 .041 .392 .046 .396 .053 .401 .061 .404 .07 .404 .082V.441H.198V.087C.198 .076 .2 .067 .205 .06 .209 .052 .216 .047 .225 .043 .232 .04 .239 .037 .247 .036 .255 .034 .263 .033 .271 .032V0H.036V.032C.044 .033 .051 .034 .059 .034 .067 .035 .074 .036 .08 .038 .089 .041 .096 .046 .1 .053 .105 .061 .107 .07 .107 .082V.395C.107 .405 .105 .414 .1 .422 .096 .429 .089 .435 .08 .438 .071 .442 .063 .445 .055 .446 .047 .448 .04 .449 .033 .449V.481H.565V.449C.556 .449 .548 .448 .541 .447 .534 .446 .527 .445 .521 .443 .512 .441 .506 .436 .501 .428 .497 .42 .495 .411 .495 .399V.087C.495 .076 .497 .066 .5 .059 .504 .052 .511 .047 .521 .043 .527 .04 .535 .037 .543 .036 .551 .034 .559 .033 .567 .032V0Z"/>
<path id="font_2_526" d="M.78 0H.618C.61 .027 .602 .05 .596 .069 .589 .088 .58 .11 .567 .135 .552 .165 .535 .188 .517 .201 .5 .215 .476 .222 .447 .222H.438V.086C.438 .075 .44 .066 .445 .059 .449 .051 .456 .046 .465 .042 .472 .039 .479 .036 .487 .035 .494 .034 .502 .033 .511 .032V0H.28V.032C.287 .033 .295 .033 .302 .034 .31 .034 .317 .035 .323 .037 .332 .04 .339 .045 .343 .052 .347 .06 .349 .069 .349 .081V.222H.34C.31 .222 .286 .215 .269 .201 .251 .188 .235 .166 .219 .135 .208 .112 .198 .091 .192 .072 .185 .053 .177 .029 .168 0H.007V.032C.013 .033 .02 .034 .029 .035 .037 .036 .045 .037 .051 .039 .062 .041 .072 .045 .078 .051 .085 .056 .091 .066 .098 .079 .101 .087 .105 .097 .111 .11 .117 .123 .124 .138 .132 .153 .144 .177 .158 .197 .174 .213 .191 .228 .213 .239 .243 .245V.251C.225 .262 .212 .277 .202 .295 .192 .313 .185 .331 .179 .348 .174 .364 .169 .38 .164 .396 .158 .413 .153 .424 .146 .43 .13 .41 .117 .397 .109 .39 .1 .383 .09 .38 .077 .38 .061 .38 .049 .385 .04 .394 .031 .404 .026 .416 .026 .43 .026 .446 .031 .46 .043 .471 .054 .482 .072 .487 .098 .487 .117 .487 .133 .485 .145 .48 .157 .475 .171 .464 .186 .447 .194 .438 .201 .426 .206 .412 .212 .398 .217 .383 .222 .366 .227 .35 .233 .335 .239 .319 .245 .304 .253 .292 .261 .283 .269 .275 .278 .269 .288 .265 .297 .261 .308 .259 .32 .259H.349V.396C.349 .406 .347 .415 .343 .423 .338 .43 .331 .436 .322 .439 .314 .443 .306 .446 .298 .447 .29 .448 .283 .449 .276 .449V.481H.507V.449C.497 .449 .489 .448 .483 .448 .477 .447 .471 .446 .464 .444 .455 .442 .449 .437 .444 .429 .44 .421 .438 .412 .438 .401V.259H.467C.478 .259 .488 .261 .499 .265 .51 .269 .519 .275 .526 .283 .535 .292 .543 .305 .549 .321 .555 .337 .561 .352 .565 .366 .57 .382 .575 .397 .581 .412 .587 .426 .593 .438 .602 .447 .616 .463 .629 .474 .643 .479 .656 .485 .671 .487 .689 .487 .714 .487 .732 .482 .744 .471 .755 .46 .761 .446 .761 .43 .761 .415 .757 .403 .747 .394 .738 .385 .725 .38 .71 .38 .696 .38 .685 .384 .677 .391 .668 .399 .656 .411 .641 .43 .634 .424 .628 .413 .623 .396 .617 .379 .613 .363 .608 .349 .602 .329 .594 .31 .584 .293 .573 .275 .56 .261 .544 .251V.245C.574 .239 .597 .228 .614 .213 .63 .197 .644 .177 .656 .153 .662 .142 .669 .128 .676 .112 .683 .095 .688 .084 .69 .079 .695 .068 .702 .059 .709 .052 .717 .045 .726 .041 .736 .039 .744 .037 .752 .036 .76 .035 .768 .033 .775 .033 .78 .032V0Z"/>
<path id="font_2_528" d="M.578 0H.344V.032C.352 .033 .359 .034 .367 .034 .375 .035 .382 .036 .388 .038 .397 .041 .404 .046 .409 .053 .414 .061 .417 .07 .417 .082V.335L.195 .095V.087C.195 .076 .197 .067 .202 .06 .206 .052 .213 .047 .222 .043 .229 .04 .237 .037 .245 .036 .253 .034 .261 .033 .27 .032V0H.036V.032C.044 .033 .051 .034 .059 .034 .067 .035 .074 .036 .08 .038 .089 .041 .096 .046 .1 .053 .105 .061 .107 .07 .107 .082V.395C.107 .405 .105 .414 .1 .422 .096 .429 .089 .435 .08 .438 .071 .442 .063 .445 .055 .446 .047 .448 .04 .449 .033 .449V.481H.267V.449C.257 .449 .249 .448 .242 .447 .235 .446 .229 .445 .223 .443 .214 .441 .207 .436 .202 .428 .198 .42 .196 .411 .196 .399V.15L.417 .391C.417 .405 .415 .416 .411 .422 .406 .429 .399 .435 .39 .438 .382 .442 .373 .445 .365 .446 .357 .448 .349 .449 .342 .449V.481H.576V.449C.567 .449 .559 .448 .552 .447 .545 .446 .538 .445 .532 .443 .523 .441 .516 .436 .512 .428 .508 .42 .505 .411 .505 .399V.087C.505 .076 .507 .066 .511 .059 .515 .052 .522 .047 .531 .043 .538 .04 .545 .037 .553 .036 .561 .034 .57 .033 .578 .032V0Z"/>
<path id="font_2_548" d="M.377 .15C.377 .178 .367 .201 .347 .221 .327 .24 .298 .25 .26 .25 .244 .25 .231 .249 .221 .248 .21 .247 .202 .247 .197 .247V.074C.197 .06 .202 .049 .212 .043 .222 .036 .24 .032 .266 .032 .288 .032 .306 .036 .321 .043 .336 .05 .347 .059 .355 .071 .363 .083 .369 .095 .372 .108 .375 .122 .377 .135 .377 .15M.476 .148C.476 .122 .47 .1 .459 .081 .448 .063 .434 .047 .416 .035 .398 .023 .379 .015 .357 .009 .336 .003 .313 0 .29 0H.036V.032C.044 .033 .051 .034 .059 .034 .067 .035 .074 .036 .08 .038 .089 .041 .096 .046 .1 .053 .105 .061 .107 .07 .107 .082V.395C.107 .405 .105 .414 .1 .422 .096 .429 .089 .435 .08 .438 .071 .442 .063 .445 .055 .446 .047 .448 .04 .449 .033 .449V.481H.275V.449C.266 .449 .256 .448 .247 .447 .238 .446 .23 .445 .224 .443 .214 .44 .207 .435 .203 .427 .199 .419 .197 .41 .197 .4V.285C.21 .285 .221 .286 .23 .286 .24 .287 .253 .287 .271 .287 .302 .287 .33 .285 .354 .28 .378 .274 .398 .267 .416 .256 .435 .245 .45 .231 .46 .214 .47 .196 .476 .175 .476 .148Z"/>
<path id="font_2_15" d="M.209 .016C.209-.007 .204-.029 .194-.05 .183-.07 .171-.088 .157-.103 .143-.119 .128-.133 .113-.145 .097-.157 .083-.166 .07-.173L.047-.14C.063-.13 .077-.121 .089-.111 .102-.101 .112-.091 .12-.082 .129-.071 .138-.058 .145-.045 .151-.032 .156-.017 .158 0H.133C.111 0 .094 .006 .082 .017 .07 .028 .063 .044 .063 .063 .063 .077 .069 .09 .08 .103 .091 .116 .106 .122 .125 .122 .153 .122 .174 .113 .188 .094 .202 .075 .209 .05 .209 .016Z"/>
<path id="font_2_542" d="M.456 0H.036V.032C.044 .033 .051 .034 .059 .034 .067 .035 .074 .036 .08 .038 .089 .041 .096 .046 .1 .053 .105 .061 .107 .07 .107 .082V.395C.107 .405 .105 .414 .101 .421 .097 .429 .09 .434 .081 .438 .073 .442 .064 .445 .056 .446 .048 .448 .041 .449 .034 .449V.481H.27V.449C.26 .449 .252 .448 .245 .447 .238 .446 .232 .445 .226 .443 .217 .441 .21 .436 .205 .428 .2 .42 .198 .411 .198 .399V.085C.198 .068 .202 .056 .21 .049 .218 .042 .229 .039 .244 .039 .252 .039 .261 .038 .272 .038 .283 .037 .295 .037 .309 .037 .319 .037 .33 .037 .341 .038 .352 .038 .363 .038 .374 .039 .388 .039 .396 .042 .399 .048 .402 .053 .404 .063 .404 .077V.395C.404 .405 .402 .414 .397 .422 .392 .429 .386 .435 .376 .438 .368 .442 .36 .445 .352 .446 .345 .448 .337 .449 .33 .449V.481H.565V.449C.556 .449 .548 .448 .541 .447 .534 .446 .527 .445 .521 .443 .512 .441 .506 .436 .501 .428 .497 .42 .495 .411 .495 .399V.085C.495 .068 .498 .055 .505 .048 .511 .041 .525 .037 .547 .037H.578V-.143H.543C.536-.11 .525-.079 .509-.05 .492-.021 .474-.004 .456 0Z"/>
<path id="font_2_540" d="M.716 .243C.716 .204 .711 .169 .699 .137 .688 .106 .673 .08 .654 .059 .635 .037 .613 .02 .588 .009 .563-.002 .535-.008 .506-.008 .49-.008 .475-.006 .461-.002 .447 .002 .435 .007 .424 .012H.422V-.125C.422-.137 .424-.146 .429-.154 .433-.162 .44-.168 .45-.171 .458-.174 .468-.177 .481-.18 .495-.183 .506-.184 .514-.185V-.217H.245V-.185C.255-.184 .266-.183 .277-.182 .288-.181 .297-.18 .305-.177 .314-.174 .321-.168 .325-.16 .329-.152 .331-.142 .331-.131V.012H.329C.317 .007 .305 .002 .293-.002 .281-.006 .266-.008 .247-.008 .218-.008 .191-.002 .166 .009 .14 .019 .118 .036 .099 .057 .079 .078 .064 .104 .053 .135 .042 .165 .037 .2 .037 .24 .037 .277 .042 .311 .053 .343 .063 .374 .079 .401 .098 .423 .116 .444 .139 .461 .165 .473 .192 .484 .219 .49 .247 .49 .263 .49 .277 .488 .291 .484 .305 .48 .317 .476 .329 .47H.331V.613C.331 .624 .329 .634 .324 .642 .32 .65 .313 .657 .305 .663 .299 .667 .291 .67 .281 .672 .27 .674 .26 .675 .25 .676V.708L.415 .719 .422 .713V.47H.424C.433 .475 .445 .479 .461 .484 .478 .488 .493 .49 .506 .49 .535 .49 .563 .485 .588 .474 .614 .463 .636 .447 .655 .425 .674 .404 .689 .378 .7 .348 .711 .317 .716 .282 .716 .243M.617 .243C.617 .28 .614 .311 .608 .338 .602 .364 .594 .386 .583 .403 .571 .42 .558 .432 .543 .44 .528 .448 .511 .452 .492 .452 .475 .452 .462 .449 .452 .445 .442 .44 .432 .434 .422 .427V.056C.432 .048 .441 .042 .45 .037 .459 .033 .473 .031 .492 .031 .51 .031 .527 .035 .542 .043 .558 .051 .571 .064 .582 .082 .594 .102 .603 .125 .608 .152 .614 .178 .617 .209 .617 .243M.331 .056V.427C.323 .433 .312 .439 .301 .444 .289 .449 .276 .452 .261 .452 .243 .452 .226 .447 .211 .439 .196 .431 .182 .418 .171 .401 .16 .383 .151 .361 .145 .335 .139 .308 .136 .276 .136 .24 .136 .202 .139 .171 .145 .145 .151 .119 .16 .097 .171 .08 .182 .063 .195 .051 .21 .043 .226 .035 .243 .031 .261 .031 .277 .031 .29 .033 .302 .038 .313 .043 .323 .049 .331 .056Z"/>
<path id="font_2_547" d="M.377 .15C.377 .178 .367 .201 .347 .221 .327 .24 .298 .25 .26 .25 .244 .25 .231 .249 .221 .248 .21 .247 .202 .247 .197 .247V.074C.197 .06 .202 .049 .212 .043 .222 .036 .24 .032 .266 .032 .288 .032 .306 .036 .321 .043 .336 .05 .347 .059 .355 .071 .363 .083 .369 .095 .372 .108 .375 .122 .377 .135 .377 .15M.476 .148C.476 .122 .47 .1 .459 .081 .448 .063 .434 .047 .416 .035 .398 .023 .379 .015 .357 .009 .336 .003 .313 0 .29 0H.036V.032C.044 .033 .051 .034 .059 .034 .067 .035 .074 .036 .08 .038 .089 .041 .096 .046 .1 .053 .105 .061 .107 .07 .107 .082V.395C.107 .405 .105 .414 .1 .422 .096 .429 .089 .435 .08 .438 .071 .442 .063 .445 .055 .446 .047 .448 .04 .449 .033 .449V.481H.275V.449C.266 .449 .256 .448 .247 .447 .238 .446 .23 .445 .224 .443 .214 .44 .207 .435 .203 .427 .199 .419 .197 .41 .197 .4V.285C.21 .285 .221 .286 .23 .286 .24 .287 .253 .287 .271 .287 .302 .287 .33 .285 .354 .28 .378 .274 .398 .267 .416 .256 .435 .245 .45 .231 .46 .214 .47 .196 .476 .175 .476 .148M.724 0H.489V.032C.496 .033 .504 .034 .511 .034 .519 .035 .526 .036 .532 .038 .541 .041 .548 .046 .553 .053 .558 .061 .56 .07 .56 .082V.395C.56 .405 .558 .414 .553 .422 .549 .429 .542 .435 .533 .438 .524 .442 .516 .445 .508 .446 .5 .448 .493 .449 .486 .449V.481H.722V.449C.712 .449 .704 .448 .697 .447 .69 .446 .684 .445 .678 .443 .669 .441 .662 .436 .657 .428 .653 .42 .651 .411 .651 .399V.087C.651 .076 .653 .066 .657 .059 .661 .052 .667 .047 .677 .043 .684 .04 .691 .037 .699 .036 .707 .034 .715 .033 .724 .032V0Z"/>
<path id="font_2_541" d="M.499 0H.278V.032C.293 .034 .305 .035 .316 .037 .326 .039 .331 .043 .331 .05 .331 .053 .329 .057 .326 .063 .323 .07 .32 .075 .316 .081 .308 .093 .297 .11 .283 .132 .269 .153 .251 .178 .231 .208 .214 .187 .198 .166 .184 .146 .17 .126 .155 .105 .139 .083 .137 .079 .135 .075 .132 .07 .13 .065 .128 .062 .128 .059 .128 .051 .133 .045 .142 .041 .152 .036 .166 .033 .184 .031V0H.006V.03C.028 .037 .046 .045 .059 .054 .073 .063 .085 .075 .097 .088 .107 .101 .121 .119 .139 .142 .157 .165 .18 .196 .209 .235 .192 .259 .172 .288 .148 .322 .124 .356 .104 .385 .089 .408 .08 .42 .071 .43 .06 .438 .049 .445 .034 .449 .014 .449V.481H.223V.449C.213 .449 .202 .449 .192 .447 .182 .446 .177 .443 .177 .438 .177 .436 .178 .432 .18 .429 .182 .425 .185 .421 .188 .417 .195 .406 .206 .389 .221 .366 .236 .343 .252 .318 .27 .292 .281 .308 .295 .326 .31 .347 .325 .368 .339 .388 .352 .407 .353 .409 .354 .412 .355 .415 .357 .419 .357 .422 .357 .425 .357 .432 .352 .438 .341 .442 .329 .446 .319 .449 .309 .45V.481H.486V.451C.461 .445 .442 .437 .428 .428 .414 .419 .402 .409 .392 .397 .381 .384 .369 .367 .354 .348 .339 .328 .318 .301 .292 .266 .321 .224 .345 .19 .364 .163 .382 .136 .401 .109 .42 .081 .429 .066 .44 .055 .451 .047 .463 .038 .479 .034 .499 .032V0Z"/>
<path id="font_2_521" d="M.372 .089C.383 .111 .392 .134 .397 .159 .402 .185 .405 .213 .405 .246 .405 .272 .403 .298 .398 .323 .394 .348 .387 .371 .377 .391 .367 .411 .353 .427 .337 .439 .321 .45 .3 .456 .275 .456 .249 .456 .227 .45 .209 .437 .191 .424 .177 .408 .166 .388 .156 .368 .148 .345 .144 .32 .139 .294 .137 .27 .137 .246 .137 .208 .139 .176 .145 .15 .15 .124 .158 .102 .168 .084 .179 .064 .192 .049 .209 .038 .226 .028 .246 .022 .271 .022 .293 .022 .313 .028 .33 .04 .347 .052 .361 .068 .372 .089M.086 .358 .09 .357C.106 .396 .13 .428 .162 .454 .195 .48 .233 .493 .276 .493 .313 .493 .346 .487 .375 .475 .403 .463 .428 .445 .447 .423 .466 .402 .481 .376 .491 .345 .501 .315 .506 .282 .506 .247 .506 .212 .5 .178 .49 .146 .479 .114 .463 .086 .443 .063 .421 .038 .396 .019 .367 .006 .338-.008 .304-.015 .264-.015 .234-.015 .205-.009 .177 .003 .15 .016 .125 .034 .105 .058 .084 .083 .067 .115 .055 .155 .043 .194 .037 .24 .037 .294 .037 .345 .04 .39 .047 .43 .054 .469 .063 .506 .074 .539 .088 .585 .112 .622 .144 .651 .175 .679 .215 .695 .261 .697 .284 .699 .309 .7 .335 .701 .361 .703 .381 .704 .396 .705 .409 .706 .422 .71 .435 .717 .448 .723 .461 .735 .474 .752L.502 .732C.495 .722 .485 .709 .473 .694 .461 .678 .45 .666 .441 .656 .433 .648 .427 .641 .422 .636 .417 .631 .412 .627 .407 .625 .402 .622 .395 .62 .388 .618 .38 .617 .37 .616 .358 .615 .344 .615 .327 .614 .307 .612 .287 .61 .27 .609 .255 .609 .233 .608 .214 .603 .197 .594 .181 .584 .167 .573 .155 .56 .144 .547 .134 .533 .127 .517 .12 .501 .114 .487 .11 .475 .104 .454 .099 .434 .095 .415 .091 .396 .088 .377 .086 .358Z"/>
<path id="font_3_521" d="M.504 .303C.504 .261 .498 .222 .484 .183 .471 .145 .451 .111 .426 .083 .401 .052 .37 .029 .336 .011 .301-.006 .261-.015 .216-.015 .191-.015 .167-.01 .145-.002 .122 .007 .103 .02 .086 .038 .07 .056 .057 .079 .047 .108 .038 .136 .033 .169 .033 .207 .033 .256 .041 .312 .056 .373 .072 .434 .091 .489 .115 .538 .125 .558 .136 .577 .15 .596 .164 .615 .18 .632 .197 .646 .216 .661 .236 .673 .257 .681 .278 .69 .304 .695 .335 .697 .359 .699 .382 .7 .405 .701 .427 .703 .446 .704 .461 .705 .475 .706 .488 .71 .5 .717 .512 .723 .526 .736 .542 .753L.567 .733C.556 .721 .546 .708 .534 .694 .523 .68 .512 .667 .5 .656 .483 .638 .469 .627 .46 .624 .451 .621 .434 .619 .41 .618 .393 .617 .377 .616 .363 .615 .349 .613 .333 .612 .316 .612 .292 .61 .27 .605 .251 .596 .232 .587 .215 .575 .199 .56 .178 .541 .158 .513 .141 .476 .124 .439 .11 .4 .1 .358L.106 .357C.131 .399 .161 .432 .197 .456 .233 .481 .272 .493 .315 .493 .375 .493 .421 .476 .455 .442 .488 .408 .504 .362 .504 .303M.36 .115C.375 .145 .386 .177 .394 .211 .401 .246 .405 .282 .405 .32 .405 .366 .397 .4 .38 .423 .364 .446 .34 .458 .308 .458 .276 .458 .248 .448 .224 .428 .2 .409 .18 .383 .165 .35 .152 .323 .142 .292 .135 .258 .128 .223 .125 .191 .125 .16 .125 .115 .133 .08 .151 .056 .169 .032 .194 .021 .228 .021 .257 .021 .283 .029 .305 .047 .327 .065 .346 .087 .36 .115Z"/>
<path id="font_3_539" d="M.35 .071H.347C.317 .046 .289 .026 .262 .012 .235-.003 .204-.01 .169-.01 .138-.01 .113-.001 .095 .017 .077 .035 .068 .059 .068 .088 .068 .096 .069 .105 .07 .116 .071 .127 .074 .143 .079 .164L.117 .316C.121 .33 .124 .343 .125 .354 .127 .365 .128 .375 .128 .385 .128 .404 .125 .416 .119 .422 .113 .428 .101 .431 .083 .431 .075 .431 .066 .429 .055 .427 .044 .424 .035 .422 .029 .42L.037 .452C.062 .464 .084 .472 .104 .478 .123 .484 .139 .487 .15 .487 .176 .487 .196 .481 .208 .47 .221 .458 .227 .44 .227 .417 .227 .411 .226 .403 .225 .393 .224 .383 .222 .373 .219 .363L.175 .185C.172 .171 .169 .158 .167 .147 .164 .135 .163 .126 .163 .12 .163 .098 .168 .081 .179 .068 .19 .055 .205 .049 .226 .049 .249 .049 .273 .055 .295 .066 .318 .078 .339 .094 .359 .114L.44 .479 .524 .485 .53 .478 .446 .096C.434 .04 .418-.008 .399-.048 .38-.088 .357-.12 .332-.144 .305-.17 .275-.188 .244-.2 .213-.211 .177-.217 .137-.217 .11-.217 .088-.215 .071-.211 .055-.207 .042-.202 .033-.195 .023-.188 .017-.181 .014-.173 .01-.165 .009-.157 .009-.149 .009-.135 .013-.122 .021-.112 .03-.101 .042-.096 .058-.096 .07-.096 .08-.099 .089-.106 .097-.113 .104-.12 .109-.128 .115-.137 .121-.147 .125-.158 .13-.168 .134-.177 .137-.184H.149C.167-.184 .187-.179 .208-.17 .228-.161 .247-.147 .265-.128 .283-.107 .3-.08 .315-.047 .33-.014 .341 .025 .35 .071Z"/>
<path id="font_3_530" d="M.549 .436C.549 .421 .544 .408 .535 .398 .526 .387 .513 .382 .496 .382 .486 .382 .475 .385 .464 .392 .453 .399 .442 .409 .429 .421 .423 .417 .417 .407 .411 .392 .405 .377 .398 .363 .392 .35 .384 .335 .374 .318 .363 .301 .351 .283 .336 .269 .319 .258V.253C.339 .244 .355 .232 .365 .217 .374 .203 .382 .183 .386 .157 .387 .153 .388 .145 .39 .135 .392 .125 .394 .116 .395 .107 .398 .088 .405 .072 .415 .061 .425 .05 .441 .044 .465 .044 .474 .044 .484 .045 .497 .048 .509 .05 .518 .053 .523 .055L.516 .022C.482 .009 .458 .001 .444-.003 .429-.007 .412-.009 .394-.009 .373-.009 .355-.003 .34 .01 .324 .022 .314 .043 .309 .073 .307 .083 .306 .094 .304 .106 .303 .119 .301 .13 .299 .139 .293 .172 .285 .194 .276 .205 .266 .216 .25 .222 .227 .222H.213C.204 .222 .198 .222 .195 .222L.145 0H.054L.126 .317C.129 .327 .131 .339 .134 .352 .136 .366 .138 .377 .138 .386 .138 .404 .135 .416 .129 .422 .123 .428 .11 .431 .092 .431 .085 .431 .076 .429 .064 .427 .053 .424 .045 .422 .039 .42L.046 .452C.071 .464 .094 .472 .113 .478 .132 .484 .148 .487 .16 .487 .186 .487 .205 .481 .217 .469 .229 .457 .235 .44 .235 .417 .235 .412 .235 .404 .233 .394 .232 .383 .23 .371 .227 .359L.204 .259H.233C.244 .259 .255 .261 .265 .264 .275 .268 .285 .274 .295 .283 .306 .292 .316 .304 .323 .316 .331 .328 .339 .343 .346 .359 .353 .375 .361 .389 .368 .403 .376 .417 .386 .431 .4 .446 .413 .46 .427 .471 .443 .478 .458 .486 .475 .489 .493 .489 .51 .489 .523 .484 .533 .474 .544 .464 .549 .451 .549 .436Z"/>
<path id="font_3_522" d="M.478 .394C.478 .363 .467 .335 .445 .312 .423 .289 .389 .272 .344 .261L.343 .256C.378 .253 .407 .244 .429 .226 .452 .209 .463 .186 .463 .157 .463 .106 .441 .065 .398 .033 .354 .001 .296-.015 .222-.015 .161-.015 .117 0 .088 .03 .06 .06 .045 .103 .045 .159 .045 .205 .051 .248 .063 .288 .075 .328 .092 .363 .116 .394 .139 .424 .168 .448 .204 .466 .239 .484 .28 .493 .325 .493 .347 .493 .367 .491 .385 .488 .402 .484 .418 .478 .433 .47 .447 .462 .458 .451 .466 .439 .474 .427 .478 .412 .478 .394M.384 .386C.384 .409 .377 .426 .362 .439 .347 .452 .328 .458 .305 .458 .282 .458 .262 .452 .244 .441 .227 .43 .212 .414 .198 .393 .186 .374 .176 .353 .168 .33 .161 .307 .155 .284 .15 .261L.239 .271C.268 .274 .292 .279 .312 .286 .332 .294 .347 .303 .357 .313 .367 .323 .374 .334 .378 .346 .382 .358 .384 .371 .384 .386M.365 .158C.365 .181 .357 .2 .339 .214 .322 .228 .293 .235 .253 .235 .236 .235 .216 .234 .194 .231 .172 .228 .155 .226 .144 .224 .142 .213 .141 .201 .14 .188 .14 .176 .14 .165 .14 .157 .14 .131 .143 .11 .149 .092 .155 .075 .162 .061 .171 .05 .181 .04 .191 .033 .203 .028 .215 .023 .227 .021 .24 .021 .263 .021 .283 .025 .299 .033 .316 .042 .329 .053 .338 .067 .347 .08 .354 .094 .359 .11 .363 .126 .365 .142 .365 .158Z"/>
<path id="font_3_547" d="M.355 .167C.355 .195 .347 .218 .331 .233 .315 .248 .293 .256 .266 .256 .252 .256 .237 .254 .221 .251 .206 .248 .195 .246 .188 .244L.168 .168C.166 .158 .163 .145 .16 .129 .158 .114 .157 .101 .157 .092 .157 .067 .164 .049 .177 .037 .191 .026 .208 .021 .227 .021 .252 .021 .273 .026 .29 .036 .307 .046 .319 .059 .329 .073 .337 .087 .344 .103 .348 .119 .353 .136 .355 .152 .355 .167M.456 .172C.456 .117 .433 .072 .389 .037 .344 .003 .285-.015 .21-.015 .164-.015 .128-.005 .104 .013 .08 .032 .067 .058 .067 .091 .067 .099 .068 .107 .069 .117 .07 .126 .073 .141 .078 .162L.121 .319C.124 .332 .127 .346 .13 .359 .133 .373 .134 .383 .134 .391 .134 .408 .131 .42 .125 .426 .118 .432 .105 .435 .087 .435 .08 .435 .07 .433 .058 .431 .046 .429 .037 .427 .031 .425L.039 .457C.064 .468 .087 .477 .107 .483 .128 .488 .144 .491 .155 .491 .182 .491 .201 .485 .212 .472 .223 .46 .229 .443 .229 .421 .229 .415 .228 .407 .227 .397 .225 .387 .223 .377 .22 .366L.196 .282C.205 .284 .219 .285 .236 .288 .254 .29 .269 .291 .281 .291 .337 .291 .379 .281 .41 .261 .44 .241 .456 .211 .456 .172M.711 .058 .704 .026C.674 .014 .652 .005 .635-.001 .619-.006 .603-.009 .586-.009 .56-.009 .541-.002 .528 .011 .516 .025 .509 .042 .509 .062 .509 .069 .51 .077 .511 .085 .512 .092 .514 .103 .517 .117L.597 .479 .683 .485 .688 .477 .617 .164C.615 .154 .612 .141 .609 .126 .606 .111 .605 .101 .605 .095 .605 .076 .609 .064 .617 .057 .626 .05 .639 .047 .658 .047 .664 .047 .673 .048 .684 .05 .696 .053 .705 .055 .711 .058Z"/>
<path id="font_3_3" d=""/>
<path id="font_3_528" d="M.345 .068H.342C.327 .056 .313 .045 .299 .035 .286 .025 .272 .016 .259 .009 .243 .001 .229-.004 .216-.008 .204-.011 .187-.013 .167-.013 .135-.013 .111-.004 .094 .014 .076 .032 .068 .056 .068 .085 .068 .093 .069 .102 .07 .113 .071 .124 .074 .14 .079 .161L.117 .316C.12 .33 .123 .343 .125 .354 .127 .365 .128 .375 .128 .385 .128 .404 .125 .416 .119 .422 .113 .428 .101 .431 .083 .431 .075 .431 .066 .429 .055 .427 .044 .424 .035 .422 .029 .42L.037 .452C.062 .464 .084 .472 .104 .478 .123 .484 .139 .487 .15 .487 .176 .487 .196 .481 .208 .469 .22 .457 .226 .439 .226 .417 .226 .411 .225 .403 .224 .393 .223 .383 .221 .373 .218 .363L.175 .182C.172 .168 .169 .156 .167 .144 .165 .132 .164 .123 .164 .117 .164 .095 .168 .078 .178 .065 .187 .052 .202 .046 .223 .046 .243 .046 .265 .051 .287 .062 .309 .073 .331 .089 .353 .111L.438 .479 .523 .485 .529 .478 .457 .164C.453 .15 .45 .137 .448 .123 .445 .11 .444 .1 .444 .095 .444 .076 .448 .064 .456 .057 .464 .05 .477 .047 .496 .047 .502 .047 .511 .048 .522 .05 .533 .052 .542 .054 .548 .057L.541 .025C.514 .014 .491 .005 .473-0 .455-.006 .439-.009 .423-.009 .397-.009 .377-.001 .365 .014 .352 .029 .345 .047 .345 .068Z"/>
<path id="font_3_542" d="M.345 .068H.342C.327 .056 .313 .045 .299 .035 .286 .025 .272 .016 .259 .009 .243 .002 .229-.004 .216-.008 .204-.011 .187-.013 .167-.013 .135-.013 .111-.004 .094 .014 .076 .032 .068 .056 .068 .085 .068 .093 .069 .102 .07 .113 .071 .124 .074 .14 .079 .161L.117 .316C.12 .33 .123 .343 .125 .354 .127 .365 .128 .375 .128 .385 .128 .404 .125 .416 .119 .422 .113 .428 .101 .431 .083 .431 .075 .431 .066 .429 .055 .427 .044 .424 .035 .422 .029 .42L.037 .452C.062 .464 .084 .472 .104 .478 .123 .484 .139 .487 .15 .487 .176 .487 .196 .481 .208 .469 .22 .457 .226 .439 .226 .417 .226 .411 .225 .403 .224 .393 .223 .383 .221 .373 .218 .363L.175 .182C.172 .168 .169 .156 .167 .144 .165 .132 .164 .123 .164 .117 .164 .095 .168 .078 .178 .065 .187 .052 .202 .046 .223 .046 .243 .046 .265 .051 .287 .062 .309 .073 .331 .09 .353 .112L.438 .479 .523 .485 .529 .478 .457 .164C.453 .15 .45 .137 .448 .123 .445 .11 .444 .1 .444 .095 .444 .076 .448 .064 .456 .057 .464 .05 .477 .047 .496 .047 .502 .047 .511 .048 .522 .05 .533 .052 .542 .054 .548 .057L.541 .025C.533 .022 .526 .018 .521 .012 .515 .006 .511 0 .508-.006 .504-.014 .502-.022 .5-.031 .499-.039 .498-.047 .497-.053L.491-.12C.488-.153 .475-.176 .451-.191 .427-.206 .395-.215 .354-.217L.344-.186C.371-.181 .388-.176 .397-.171 .405-.165 .411-.154 .414-.138L.422-.089C.424-.08 .427-.071 .431-.063 .435-.055 .44-.048 .446-.04 .452-.032 .458-.025 .463-.02 .469-.014 .475-.008 .481-0L.479 .003C.47 0 .46-.002 .45-.005 .439-.007 .43-.009 .423-.009 .397-.009 .377-.001 .365 .014 .352 .03 .345 .048 .345 .068Z"/>
<path id="font_3_540" d="M.706 .315C.706 .273 .699 .232 .685 .192 .671 .153 .653 .118 .629 .089 .605 .058 .577 .034 .547 .017 .516-0 .482-.009 .445-.009 .43-.009 .415-.007 .401-.002 .386 .002 .375 .007 .365 .012H.363C.346-.053 .315-.108 .271-.151 .228-.195 .183-.217 .138-.217 .11-.217 .089-.212 .076-.201 .063-.19 .056-.177 .056-.161 .056-.148 .06-.136 .068-.125 .076-.114 .089-.108 .104-.108 .122-.108 .137-.115 .148-.128 .159-.141 .17-.156 .18-.174 .201-.168 .22-.149 .236-.116 .253-.082 .267-.039 .278 .015H.275C.263 .009 .25 .003 .237-.001 .224-.006 .208-.009 .19-.009 .141-.009 .103 .006 .075 .036 .047 .066 .033 .109 .033 .167 .033 .206 .04 .246 .052 .285 .065 .323 .083 .358 .106 .389 .129 .419 .156 .444 .189 .462 .221 .481 .256 .49 .293 .49 .307 .49 .322 .488 .336 .484 .35 .48 .362 .475 .372 .47H.375C.39 .544 .419 .604 .463 .649 .506 .695 .552 .718 .601 .718 .629 .718 .65 .712 .663 .702 .676 .691 .683 .678 .683 .662 .683 .646 .678 .634 .67 .624 .661 .614 .65 .609 .634 .609 .617 .609 .602 .616 .59 .63 .578 .643 .568 .658 .56 .675 .539 .67 .521 .652 .504 .619 .488 .586 .473 .535 .459 .466H.462C.472 .472 .486 .477 .503 .482 .519 .488 .536 .49 .553 .49 .6 .49 .637 .475 .665 .445 .692 .415 .706 .372 .706 .315M.361 .416C.354 .427 .346 .436 .336 .445 .325 .453 .313 .457 .3 .457 .271 .457 .247 .447 .225 .427 .203 .408 .185 .382 .17 .351 .157 .323 .147 .29 .139 .252 .132 .215 .128 .179 .128 .145 .128 .105 .135 .075 .148 .057 .162 .039 .183 .03 .21 .03 .226 .03 .24 .033 .252 .038 .264 .042 .275 .048 .285 .055L.361 .416M.611 .332C.611 .373 .604 .403 .59 .422 .577 .442 .556 .451 .527 .451 .512 .451 .498 .449 .487 .444 .475 .44 .464 .434 .452 .426L.376 .065C.385 .052 .394 .042 .404 .035 .413 .028 .425 .024 .438 .024 .465 .024 .489 .034 .511 .053 .533 .072 .552 .097 .566 .128 .581 .158 .592 .19 .599 .226 .607 .261 .611 .297 .611 .332Z"/>
<path id="font_3_536" d="M.544 .306C.544 .263 .536 .221 .521 .182 .506 .143 .485 .109 .46 .081 .432 .049 .401 .026 .368 .01 .335-.005 .301-.013 .266-.013 .238-.013 .215-.009 .197-.002 .179 .004 .163 .013 .149 .023L.121-.105C.119-.113 .118-.121 .116-.128 .115-.135 .115-.141 .115-.145 .115-.154 .118-.161 .124-.166 .131-.172 .138-.175 .146-.178 .154-.18 .163-.182 .173-.184 .183-.185 .193-.186 .201-.187L.194-.217H-.075L-.068-.187C-.058-.186-.048-.185-.039-.184-.03-.183-.021-.181-.013-.179-.003-.176 .005-.171 .011-.163 .017-.155 .021-.145 .024-.133L.126 .316C.129 .328 .131 .341 .133 .353 .136 .366 .137 .377 .137 .386 .137 .404 .134 .416 .128 .422 .122 .429 .11 .432 .091 .432 .084 .432 .075 .43 .064 .427 .053 .425 .044 .423 .038 .421L.045 .452C.07 .464 .092 .472 .112 .478 .132 .484 .149 .487 .163 .487 .186 .487 .203 .482 .215 .47 .227 .459 .234 .443 .237 .422H.241C.263 .443 .287 .46 .312 .473 .337 .486 .362 .493 .387 .493 .437 .493 .475 .476 .503 .443 .53 .409 .544 .363 .544 .306M.392 .106C.408 .132 .421 .163 .43 .197 .439 .231 .443 .267 .443 .305 .443 .322 .442 .339 .439 .356 .436 .374 .431 .388 .424 .4 .417 .412 .407 .422 .395 .429 .382 .436 .366 .439 .346 .439 .331 .439 .314 .435 .296 .426 .278 .417 .256 .4 .23 .375L.167 .098C.17 .08 .18 .063 .198 .047 .215 .03 .237 .022 .262 .022 .287 .022 .312 .03 .334 .045 .356 .06 .376 .08 .392 .106Z"/>
<path id="font_3_537" d="M.217-.015C.16-.015 .115 .002 .082 .035 .049 .069 .033 .116 .033 .177 .033 .218 .039 .257 .052 .295 .064 .332 .082 .365 .104 .394 .126 .423 .155 .447 .189 .465 .224 .484 .262 .493 .304 .493 .35 .493 .386 .483 .41 .464 .434 .444 .446 .419 .446 .389 .446 .367 .441 .347 .43 .33 .42 .313 .404 .305 .383 .305 .365 .305 .352 .309 .343 .318 .334 .327 .33 .336 .33 .347 .33 .357 .334 .371 .341 .389 .348 .407 .354 .422 .358 .433 .354 .442 .346 .448 .334 .452 .322 .456 .309 .458 .295 .458 .251 .458 .213 .432 .181 .381 .149 .329 .133 .266 .133 .191 .133 .145 .143 .108 .164 .081 .184 .054 .212 .04 .248 .04 .279 .04 .307 .048 .332 .065 .356 .082 .38 .106 .402 .137L.43 .116C.408 .081 .377 .05 .339 .024 .3-.002 .26-.015 .217-.015Z"/>
<path id="font_3_543" d="M.119 .391C.119 .406 .116 .417 .112 .423 .107 .429 .095 .432 .074 .432 .067 .432 .058 .43 .046 .427 .034 .425 .025 .423 .019 .421L.026 .452C.051 .464 .074 .473 .094 .478 .114 .484 .13 .487 .142 .487 .166 .487 .184 .482 .195 .47 .207 .458 .212 .442 .212 .422 .212 .403 .209 .379 .201 .348 .194 .318 .19 .298 .19 .29 .19 .27 .195 .255 .205 .244 .214 .233 .23 .228 .251 .228 .271 .228 .292 .233 .314 .243 .335 .253 .356 .268 .377 .287L.422 .48 .507 .485 .513 .478 .439 .164C.437 .154 .434 .142 .431 .127 .428 .112 .427 .101 .427 .095 .427 .076 .431 .064 .439 .057 .447 .05 .46 .047 .479 .047 .485 .047 .494 .048 .506 .05 .517 .053 .526 .055 .532 .058L.525 .026C.496 .014 .473 .005 .457-.001 .44-.006 .424-.009 .407-.009 .381-.009 .362-.002 .349 .012 .336 .025 .329 .042 .329 .062 .329 .069 .33 .077 .331 .085 .333 .094 .335 .105 .337 .118L.367 .241H.364C.337 .218 .31 .201 .284 .188 .257 .175 .228 .169 .196 .169 .165 .169 .14 .178 .123 .195 .105 .212 .096 .234 .096 .26 .096 .273 .1 .296 .107 .329 .115 .362 .119 .383 .119 .391Z"/>
<path id="font_3_538" d="M.851 .056 .844 .024C.814 .012 .79 .003 .772-.002 .754-.006 .739-.009 .726-.009 .7-.009 .681-.002 .667 .011 .654 .025 .648 .042 .648 .062 .648 .069 .649 .077 .65 .085 .651 .094 .653 .104 .656 .116L.704 .298C.708 .312 .711 .325 .713 .336 .715 .348 .716 .357 .716 .364 .716 .386 .711 .403 .702 .415 .692 .428 .677 .435 .657 .435 .635 .435 .614 .429 .593 .419 .572 .409 .548 .39 .521 .362L.437 0H.346L.422 .326C.424 .333 .426 .341 .427 .349 .428 .357 .429 .363 .429 .367 .429 .388 .424 .404 .413 .417 .403 .429 .387 .435 .367 .435 .348 .435 .328 .43 .305 .421 .283 .411 .257 .391 .227 .359L.145 0H.054L.126 .316C.129 .328 .132 .34 .134 .353 .136 .366 .138 .377 .138 .386 .138 .405 .135 .418 .128 .424 .122 .43 .11 .433 .092 .433 .085 .433 .076 .431 .065 .429 .053 .426 .045 .424 .039 .422L.046 .453C.071 .465 .094 .473 .113 .479 .133 .485 .15 .487 .164 .487 .19 .487 .208 .48 .219 .466 .23 .452 .236 .433 .236 .409H.239C.278 .439 .309 .461 .334 .474 .359 .487 .388 .493 .422 .493 .451 .493 .475 .485 .493 .468 .511 .451 .521 .43 .523 .405H.525C.56 .434 .591 .456 .618 .471 .646 .486 .677 .493 .713 .493 .745 .493 .769 .484 .785 .466 .802 .448 .811 .424 .811 .395 .811 .389 .81 .379 .808 .364 .806 .349 .803 .334 .799 .319L.758 .162C.755 .152 .753 .14 .75 .126 .747 .113 .746 .102 .746 .095 .746 .076 .75 .064 .758 .057 .766 .05 .779 .047 .797 .047 .804 .047 .812 .048 .824 .049 .836 .051 .845 .053 .851 .056Z"/>
<path id="font_3_520" d="M.34 .064H.336C.329 .058 .321 .051 .311 .042 .301 .033 .289 .024 .276 .016 .263 .008 .249 .001 .234-.006 .219-.012 .203-.015 .186-.015 .138-.015 .101 .002 .074 .036 .048 .07 .034 .117 .034 .175 .034 .216 .042 .255 .057 .293 .072 .332 .092 .366 .119 .396 .144 .425 .174 .449 .208 .466 .243 .484 .278 .493 .314 .493 .338 .493 .36 .49 .381 .484 .402 .478 .418 .471 .43 .463L.52 .486 .525 .479 .451 .163C.449 .153 .446 .141 .443 .126 .44 .112 .439 .101 .439 .094 .439 .076 .443 .063 .451 .057 .458 .05 .472 .047 .49 .047 .496 .047 .505 .048 .517 .05 .528 .052 .537 .054 .543 .057L.536 .025C.506 .013 .485 .004 .47-.001 .456-.006 .438-.009 .418-.009 .395-.009 .376-.002 .362 .012 .349 .025 .341 .043 .34 .064M.41 .373C.41 .384 .409 .394 .406 .404 .404 .413 .399 .423 .392 .431 .386 .439 .377 .446 .365 .451 .354 .456 .34 .458 .322 .458 .299 .458 .275 .45 .253 .435 .23 .419 .21 .398 .192 .371 .175 .347 .162 .317 .151 .281 .14 .246 .135 .21 .135 .174 .135 .154 .136 .137 .138 .121 .14 .106 .145 .092 .151 .079 .158 .067 .167 .057 .178 .05 .19 .043 .205 .04 .223 .04 .241 .04 .26 .045 .28 .055 .3 .066 .323 .084 .348 .11L.41 .373Z"/>
<path id="font_3_525" d="M.452 .391C.452 .356 .441 .327 .42 .302 .398 .277 .367 .257 .325 .242 .295 .231 .264 .222 .233 .215 .202 .209 .168 .203 .131 .198 .131 .147 .14 .108 .159 .081 .178 .054 .206 .04 .243 .04 .276 .04 .304 .048 .329 .064 .354 .081 .379 .105 .403 .137L.431 .116C.405 .076 .372 .045 .333 .021 .294-.003 .253-.015 .211-.015 .154-.015 .11 .002 .079 .034 .049 .066 .034 .112 .034 .171 .034 .213 .04 .252 .053 .289 .066 .327 .085 .361 .109 .392 .133 .422 .163 .447 .198 .465 .233 .484 .272 .493 .314 .493 .361 .493 .396 .484 .418 .464 .441 .445 .452 .421 .452 .391M.362 .403C.362 .416 .361 .426 .357 .433 .353 .44 .349 .446 .343 .449 .337 .453 .331 .456 .325 .457 .318 .458 .312 .458 .305 .458 .266 .458 .23 .437 .197 .394 .163 .351 .143 .297 .134 .233 .157 .237 .182 .241 .211 .247 .24 .253 .263 .261 .282 .271 .309 .285 .329 .303 .343 .325 .356 .347 .362 .373 .362 .403Z"/>
<path id="font_3_533" d="M.208 .275H.404L.452 .48 .537 .485 .542 .478 .47 .164C.467 .154 .465 .142 .462 .127 .459 .112 .457 .101 .457 .095 .457 .076 .461 .064 .469 .057 .477 .05 .491 .047 .509 .047 .515 .047 .524 .048 .536 .05 .547 .053 .556 .055 .562 .058L.555 .026C.526 .014 .503 .005 .487-.001 .471-.006 .454-.009 .438-.009 .411-.009 .392-.002 .379 .012 .366 .025 .359 .042 .359 .062 .359 .069 .36 .077 .362 .086 .363 .094 .365 .105 .368 .118L.395 .236H.199L.145 0H.054L.126 .316C.129 .326 .131 .338 .134 .352 .136 .365 .138 .376 .138 .385 .138 .404 .135 .416 .129 .422 .123 .428 .11 .431 .092 .431 .085 .431 .076 .429 .064 .427 .053 .424 .045 .422 .039 .42L.046 .452C.071 .464 .094 .472 .113 .478 .132 .484 .148 .487 .16 .487 .186 .487 .205 .481 .217 .469 .229 .457 .235 .44 .235 .417 .235 .412 .235 .404 .233 .394 .232 .383 .23 .371 .227 .359L.208 .275Z"/>
<path id="font_3_532" d="M.301 .008C.294 .092 .287 .159 .281 .208 .275 .257 .266 .312 .253 .373H.249C.235 .3 .219 .24 .199 .191 .179 .142 .158 .103 .136 .074 .116 .045 .096 .025 .076 .011 .056-.002 .04-.009 .027-.009 .009-.009-.004-.004-.012 .006-.019 .017-.023 .029-.023 .044-.023 .057-.018 .069-.009 .081 .001 .094 .014 .1 .031 .1 .04 .1 .049 .098 .06 .094 .07 .09 .081 .085 .091 .079 .127 .123 .155 .179 .177 .249 .199 .318 .212 .382 .216 .439H.131L.141 .475 .301 .484C.318 .431 .332 .375 .344 .318 .356 .26 .365 .197 .371 .128L.598 .478 .686 .485 .692 .478 .621 .164C.619 .154 .616 .141 .614 .126 .611 .111 .609 .101 .609 .095 .609 .076 .613 .064 .622 .057 .63 .05 .643 .047 .662 .047 .668 .047 .677 .048 .688 .05 .699 .053 .708 .055 .714 .058L.707 .026C.677 .014 .655 .005 .64-.001 .624-.006 .608-.009 .592-.009 .566-.009 .547-.002 .534 .011 .522 .025 .516 .042 .516 .062 .516 .069 .517 .077 .518 .085 .519 .093 .521 .104 .523 .117L.587 .385 .582 .387 .333 .008H.301Z"/>
<path id="font_3_15" d="M.202 .048C.202 .02 .195-.006 .183-.03 .17-.053 .154-.075 .134-.094 .115-.113 .095-.129 .075-.142 .055-.155 .037-.165 .021-.173L.006-.14C.021-.132 .036-.123 .051-.113 .067-.102 .079-.092 .09-.082 .103-.069 .114-.056 .123-.044 .132-.032 .139-.017 .144 .001H.121C.101 .001 .086 .006 .076 .016 .066 .026 .062 .039 .062 .055 .062 .072 .068 .087 .081 .102 .094 .116 .112 .123 .134 .123 .158 .123 .175 .116 .186 .102 .196 .088 .202 .07 .202 .048Z"/>
<path id="font_3_534" d="M.504 .301C.504 .263 .498 .224 .485 .186 .472 .147 .453 .114 .428 .085 .403 .055 .373 .031 .338 .012 .302-.006 .261-.015 .215-.015 .161-.015 .117 .003 .083 .038 .05 .073 .033 .119 .033 .178 .033 .222 .04 .262 .054 .3 .069 .337 .088 .37 .112 .398 .136 .427 .166 .45 .202 .467 .238 .484 .277 .493 .319 .493 .377 .493 .423 .475 .455 .44 .488 .405 .504 .358 .504 .301M.405 .319C.405 .366 .397 .4 .38 .423 .364 .446 .34 .458 .309 .458 .282 .458 .257 .45 .233 .433 .209 .417 .188 .39 .171 .352 .158 .324 .148 .292 .142 .258 .135 .223 .132 .191 .132 .162 .132 .115 .14 .08 .156 .056 .173 .032 .197 .021 .229 .021 .258 .021 .284 .03 .307 .048 .329 .066 .347 .089 .361 .117 .375 .144 .386 .176 .394 .211 .401 .246 .405 .282 .405 .319Z"/>
</defs>
<g clip-path="url(#clip_1)">
<use data-text="&#x041d;" xlink:href="#font_2_501" transform="matrix(13.5,0,0,-13.5,73.934,21)" fill="#1f1a17"/>
<use data-text="&#x043e;" xlink:href="#font_2_534" transform="matrix(13.5,0,0,-13.5,84.936,21)" fill="#1f1a17"/>
<use data-text="&#x043c;" xlink:href="#font_2_532" transform="matrix(13.5,0,0,-13.5,92.213,21)" fill="#1f1a17"/>
<use data-text="&#x0435;" xlink:href="#font_2_525" transform="matrix(13.5,0,0,-13.5,101.865,21)" fill="#1f1a17"/>
<use data-text="&#x0440;" xlink:href="#font_2_536" transform="matrix(13.5,0,0,-13.5,108.386,21)" fill="#1f1a17"/>
<use data-text=" " xlink:href="#font_2_3" transform="matrix(13.5,0,0,-13.5,116.094,21)" fill="#1f1a17"/>
<use data-text="&#x0437;" xlink:href="#font_2_527" transform="matrix(13.5,0,0,-13.5,119.348,21)" fill="#1f1a17"/>
<use data-text="&#x0430;" xlink:href="#font_2_520" transform="matrix(13.5,0,0,-13.5,125.747,21)" fill="#1f1a17"/>
<use data-text="&#x043a;" xlink:href="#font_2_530" transform="matrix(13.5,0,0,-13.5,132.551,21)" fill="#1f1a17"/>
<use data-text="&#x0430;" xlink:href="#font_2_520" transform="matrix(13.5,0,0,-13.5,139.989,21)" fill="#1f1a17"/>
<use data-text="&#x0437;" xlink:href="#font_2_527" transform="matrix(13.5,0,0,-13.5,146.793,21)" fill="#1f1a17"/>
<use data-text="&#x0430;" xlink:href="#font_2_520" transform="matrix(13.5,0,0,-13.5,153.192,21)" fill="#1f1a17"/>
<use data-text=":" xlink:href="#font_2_29" transform="matrix(13.5,0,0,-13.5,159.996,21)" fill="#1f1a17"/>
<use data-text=" " xlink:href="#font_2_3" transform="matrix(13.5,0,0,-13.5,164.222,21)" fill="#1f1a17"/>
<use data-text="&#x0434;" xlink:href="#font_2_524" transform="matrix(13.5,0,0,-13.5,167.475,21)" fill="#1f1a17"/>
<use data-text="&#x043e;" xlink:href="#font_2_534" transform="matrix(13.5,0,0,-13.5,175.035,21)" fill="#1f1a17"/>
<use data-text="&#x0441;" xlink:href="#font_2_537" transform="matrix(13.5,0,0,-13.5,182.312,21)" fill="#1f1a17"/>
<use data-text="&#x043b;" xlink:href="#font_2_531" transform="matrix(13.5,0,0,-13.5,188.441,21)" fill="#1f1a17"/>
<use data-text="&#x043e;" xlink:href="#font_2_534" transform="matrix(13.5,0,0,-13.5,196.284,21)" fill="#1f1a17"/>
<use data-text="&#x0432;" xlink:href="#font_2_522" transform="matrix(13.5,0,0,-13.5,203.561,21)" fill="#1f1a17"/>
<use data-text="&#x043d;" xlink:href="#font_2_533" transform="matrix(13.5,0,0,-13.5,210.554,21)" fill="#1f1a17"/>
<use data-text="&#x043e;" xlink:href="#font_2_534" transform="matrix(13.5,0,0,-13.5,218.775,21)" fill="#1f1a17"/>
<path transform="matrix(.75,0,0,.75,97.5,37.5)" d="M0 0H140V18C139.606 18 139.216 18.038 138.829 18.115 138.443 18.192 138.068 18.306 137.704 18.457 137.34 18.607 136.994 18.792 136.667 19.011 136.339 19.23 136.036 19.479 135.757 19.757 135.479 20.036 135.23 20.339 135.011 20.667 134.792 20.994 134.607 21.34 134.457 21.704 134.306 22.068 134.192 22.443 134.115 22.829 134.038 23.216 134 23.606 134 24 134 24.394 134.038 24.784 134.115 25.171 134.192 25.557 134.306 25.932 134.457 26.296 134.607 26.66 134.792 27.006 135.011 27.333 135.23 27.661 135.479 27.964 135.757 28.243 136.036 28.521 136.339 28.77 136.667 28.989 136.994 29.208 137.34 29.393 137.704 29.543 138.068 29.694 138.443 29.808 138.829 29.885 139.216 29.962 139.606 30 140 30V48H0V30C.394 30 .784 29.962 1.171 29.885 1.557 29.808 1.932 29.694 2.296 29.543 2.66 29.393 3.006 29.208 3.333 28.989 3.661 28.77 3.964 28.521 4.243 28.243 4.521 27.964 4.77 27.661 4.989 27.333 5.208 27.006 5.393 26.66 5.543 26.296 5.694 25.932 5.808 25.557 5.885 25.171 5.962 24.784 6 24.394 6 24 6 23.606 5.962 23.216 5.885 22.829 5.808 22.443 5.694 22.068 5.543 21.704 5.393 21.34 5.208 20.994 4.989 20.667 4.77 20.339 4.521 20.036 4.243 19.757 3.964 19.479 3.661 19.23 3.333 19.011 3.006 18.792 2.66 18.607 2.296 18.457 1.932 18.306 1.557 18.192 1.171 18.115 .784 18.038 .394 18 0 18V0Z" fill="#fbf8f3"/>
<path transform="matrix(.75,0,0,.75,97.5,37.5)" stroke-width="1.5" stroke-linecap="butt" stroke-miterlimit="4" stroke-linejoin="miter" fill="none" stroke="#1f1a17" d="M0 0H140V18C139.606 18 139.216 18.038 138.829 18.115 138.443 18.192 138.068 18.306 137.704 18.457 137.34 18.607 136.994 18.792 136.667 19.011 136.339 19.23 136.036 19.479 135.757 19.757 135.479 20.036 135.23 20.339 135.011 20.667 134.792 20.994 134.607 21.34 134.457 21.704 134.306 22.068 134.192 22.443 134.115 22.829 134.038 23.216 134 23.606 134 24 134 24.394 134.038 24.784 134.115 25.171 134.192 25.557 134.306 25.932 134.457 26.296 134.607 26.66 134.792 27.006 135.011 27.333 135.23 27.661 135.479 27.964 135.757 28.243 136.036 28.521 136.339 28.77 136.667 28.989 136.994 29.208 137.34 29.393 137.704 29.543 138.068 29.694 138.443 29.808 138.829 29.885 139.216 29.962 139.606 30 140 30V48H0V30C.394 30 .784 29.962 1.171 29.885 1.557 29.808 1.932 29.694 2.296 29.543 2.66 29.393 3.006 29.208 3.333 28.989 3.661 28.77 3.964 28.521 4.243 28.243 4.521 27.964 4.77 27.661 4.989 27.333 5.208 27.006 5.393 26.66 5.543 26.296 5.694 25.932 5.808 25.557 5.885 25.171 5.962 24.784 6 24.394 6 24 6 23.606 5.962 23.216 5.885 22.829 5.808 22.443 5.694 22.068 5.543 21.704 5.393 21.34 5.208 20.994 4.989 20.667 4.77 20.339 4.521 20.036 4.243 19.757 3.964 19.479 3.661 19.23 3.333 19.011 3.006 18.792 2.66 18.607 2.296 18.457 1.932 18.306 1.557 18.192 1.171 18.115 .784 18.038 .394 18 0 18V0Z"/>
<use data-text="&#x0437;" xlink:href="#font_2_527" transform="matrix(9,0,0,-9,138.715,54)" fill="#6b625b"/>
<use data-text="&#x0430;" xlink:href="#font_2_520" transform="matrix(9,0,0,-9,142.981,54)" fill="#6b625b"/>
<use data-text="&#x043a;" xlink:href="#font_2_530" transform="matrix(9,0,0,-9,147.517,54)" fill="#6b625b"/>
<use data-text="&#x0430;" xlink:href="#font_2_520" transform="matrix(9,0,0,-9,152.476,54)" fill="#6b625b"/>
<use data-text="&#x0437;" xlink:href="#font_2_527" transform="matrix(9,0,0,-9,157.012,54)" fill="#6b625b"/>
<use data-text="4" xlink:href="#font_2_23" transform="matrix(12,0,0,-12,128.484,67.5)" fill="#1f1a17"/>
<use data-text="8" xlink:href="#font_2_27" transform="matrix(12,0,0,-12,135.264,67.5)" fill="#1f1a17"/>
<use data-text="-" xlink:href="#font_2_16" transform="matrix(12,0,0,-12,142.416,67.5)" fill="#1f1a17"/>
<use data-text="2" xlink:href="#font_2_21" transform="matrix(12,0,0,-12,146.904,67.5)" fill="#1f1a17"/>
<use data-text="2" xlink:href="#font_2_21" transform="matrix(12,0,0,-12,153.612,67.5)" fill="#1f1a17"/>
<use data-text="1" xlink:href="#font_2_20" transform="matrix(12,0,0,-12,160.32,67.5)" fill="#1f1a17"/>
<use data-text="7" xlink:href="#font_2_26" transform="matrix(12,0,0,-12,165.48,67.5)" fill="#1f1a17"/>
<use data-text="&#x043d;" xlink:href="#font_2_533" transform="matrix(9.75,0,0,-9.75,32.73,102)" fill="#8a3b12"/>
<use data-text="&#x0435;" xlink:href="#font_2_525" transform="matrix(9.75,0,0,-9.75,38.668,102)" fill="#8a3b12"/>
<use data-text=" " xlink:href="#font_2_3" transform="matrix(9.75,0,0,-9.75,43.377,102)" fill="#8a3b12"/>
<use data-text="&#x0442;" xlink:href="#font_2_538" transform="matrix(9.75,0,0,-9.75,45.727,102)" fill="#8a3b12"/>
<use data-text="&#x0430;" xlink:href="#font_2_520" transform="matrix(9.75,0,0,-9.75,50.319,102)" fill="#8a3b12"/>
<use data-text="&#x043a;" xlink:href="#font_2_530" transform="matrix(9.75,0,0,-9.75,55.233,102)" fill="#8a3b12"/>
<use data-text=":" xlink:href="#font_2_29" transform="matrix(9.75,0,0,-9.75,60.606,102)" fill="#8a3b12"/>
<use data-text=" " xlink:href="#font_2_3" transform="matrix(9.75,0,0,-9.75,63.657,102)" fill="#8a3b12"/>
<use data-text="&quot;" xlink:href="#font_2_5" transform="matrix(9.75,0,0,-9.75,66.007,102)" fill="#8a3b12"/>
<use data-text="&#x043f;" xlink:href="#font_2_535" transform="matrix(9.75,0,0,-9.75,70.024,102)" fill="#8a3b12"/>
<use data-text="&#x0435;" xlink:href="#font_2_525" transform="matrix(9.75,0,0,-9.75,75.894,102)" fill="#8a3b12"/>
<use data-text="&#x0440;" xlink:href="#font_2_536" transform="matrix(9.75,0,0,-9.75,80.603,102)" fill="#8a3b12"/>
<use data-text="&#x0435;" xlink:href="#font_2_525" transform="matrix(9.75,0,0,-9.75,86.17,102)" fill="#8a3b12"/>
<use data-text="&#x0441;" xlink:href="#font_2_537" transform="matrix(9.75,0,0,-9.75,90.879,102)" fill="#8a3b12"/>
<use data-text="&#x043a;" xlink:href="#font_2_530" transform="matrix(9.75,0,0,-9.75,95.306,102)" fill="#8a3b12"/>
<use data-text="&#x0430;" xlink:href="#font_2_520" transform="matrix(9.75,0,0,-9.75,100.678,102)" fill="#8a3b12"/>
<use data-text="&#x0436;" xlink:href="#font_2_526" transform="matrix(9.75,0,0,-9.75,105.592,102)" fill="#8a3b12"/>
<use data-text="&#x0438;" xlink:href="#font_2_528" transform="matrix(9.75,0,0,-9.75,113.265,102)" fill="#8a3b12"/>
<use data-text="&quot;" xlink:href="#font_2_5" transform="matrix(9.75,0,0,-9.75,119.232,102)" fill="#8a3b12"/>
<path transform="matrix(.75,0,0,.75,78,147)" d="M0-36C12-20 21-8 21 3 21 4.379 20.865 5.745 20.596 7.097 20.327 8.449 19.929 9.762 19.401 11.036 18.874 12.31 18.227 13.52 17.461 14.667 16.695 15.813 15.824 16.874 14.849 17.849 13.874 18.824 12.813 19.695 11.667 20.461 10.52 21.227 9.31 21.874 8.036 22.401 6.762 22.929 5.449 23.327 4.097 23.596 2.745 23.865 1.379 24 0 24-1.379 24-2.745 23.865-4.097 23.596-5.449 23.327-6.762 22.929-8.036 22.401-9.31 21.874-10.52 21.227-11.667 20.461-12.813 19.695-13.874 18.824-14.849 17.849-15.824 16.874-16.695 15.813-17.461 14.667-18.227 13.52-18.874 12.31-19.401 11.036-19.929 9.762-20.327 8.449-20.596 7.097-20.865 5.745-21 4.379-21 3-21-8-12-20 0-36Z" fill="#f2ebe1"/>
<path transform="matrix(.75,0,0,.75,78,147)" stroke-width="2" stroke-linecap="butt" stroke-miterlimit="4" stroke-linejoin="miter" fill="none" stroke="#1f1a17" d="M0-36C12-20 21-8 21 3 21 4.379 20.865 5.745 20.596 7.097 20.327 8.449 19.929 9.762 19.401 11.036 18.874 12.31 18.227 13.52 17.461 14.667 16.695 15.813 15.824 16.874 14.849 17.849 13.874 18.824 12.813 19.695 11.667 20.461 10.52 21.227 9.31 21.874 8.036 22.401 6.762 22.929 5.449 23.327 4.097 23.596 2.745 23.865 1.379 24 0 24-1.379 24-2.745 23.865-4.097 23.596-5.449 23.327-6.762 22.929-8.036 22.401-9.31 21.874-10.52 21.227-11.667 20.461-12.813 19.695-13.874 18.824-14.849 17.849-15.824 16.874-16.695 15.813-17.461 14.667-18.227 13.52-18.874 12.31-19.401 11.036-19.929 9.762-20.327 8.449-20.596 7.097-20.865 5.745-21 4.379-21 3-21-8-12-20 0-36Z"/>
<path transform="matrix(.75,0,0,.75,78,147)" d="M-5 3C-5 3.265-5.051 3.52-5.152 3.765-5.254 4.01-5.398 4.227-5.586 4.414-5.773 4.602-5.99 4.746-6.235 4.848-6.48 4.949-6.735 5-7 5-7.265 5-7.52 4.949-7.765 4.848-8.01 4.746-8.227 4.602-8.414 4.414-8.602 4.227-8.746 4.01-8.848 3.765-8.949 3.52-9 3.265-9 3-9 2.735-8.949 2.48-8.848 2.235-8.746 1.99-8.602 1.773-8.414 1.586-8.227 1.398-8.01 1.254-7.765 1.152-7.52 1.051-7.265 1-7 1-6.735 1-6.48 1.051-6.235 1.152-5.99 1.254-5.773 1.398-5.586 1.586-5.398 1.773-5.254 1.99-5.152 2.235-5.051 2.48-5 2.735-5 3Z" fill="#1f1a17"/>
<path transform="matrix(.75,0,0,.75,78,147)" d="M9 3C9 3.265 8.949 3.52 8.848 3.765 8.746 4.01 8.602 4.227 8.414 4.414 8.227 4.602 8.01 4.746 7.765 4.848 7.52 4.949 7.265 5 7 5 6.735 5 6.48 4.949 6.235 4.848 5.99 4.746 5.773 4.602 5.586 4.414 5.398 4.227 5.254 4.01 5.152 3.765 5.051 3.52 5 3.265 5 3 5 2.735 5.051 2.48 5.152 2.235 5.254 1.99 5.398 1.773 5.586 1.586 5.773 1.398 5.99 1.254 6.235 1.152 6.48 1.051 6.735 1 7 1 7.265 1 7.52 1.051 7.765 1.152 8.01 1.254 8.227 1.398 8.414 1.586 8.602 1.773 8.746 1.99 8.848 2.235 8.949 2.48 9 2.735 9 3Z" fill="#1f1a17"/>
<path transform="matrix(.75,0,0,.75,78,147)" stroke-width="1.6" stroke-linecap="round" stroke-miterlimit="4" stroke-linejoin="miter" fill="none" stroke="#1f1a17" d="M-6 13C-2 16.333 2 16.333 6 13"/>
<path transform="matrix(.75,0,0,.75,0,0)" d="M44 240H164C164.919 240 165.83 240.09 166.731 240.269 167.633 240.448 168.508 240.714 169.358 241.066 170.207 241.417 171.014 241.849 171.778 242.359 172.542 242.87 173.249 243.45 173.899 244.101 174.549 244.75 175.13 245.458 175.641 246.222 176.151 246.986 176.583 247.793 176.934 248.642 177.286 249.492 177.552 250.367 177.731 251.269 177.91 252.17 178 253.081 178 254V278C178 278.919 177.91 279.83 177.731 280.731 177.552 281.633 177.286 282.508 176.934 283.358 176.583 284.207 176.151 285.014 175.641 285.778 175.13 286.542 174.549 287.249 173.899 287.899 173.249 288.549 172.542 289.13 171.778 289.641 171.014 290.151 170.207 290.582 169.358 290.934 168.508 291.286 167.633 291.552 166.731 291.731 165.83 291.91 164.919 292 164 292H44C43.081 292 42.17 291.91 41.269 291.731 40.367 291.552 39.492 291.286 38.642 290.934 37.793 290.582 36.986 290.151 36.222 289.641 35.458 289.13 34.751 288.549 34.101 287.899 33.45 287.249 32.87 286.542 32.359 285.778 31.849 285.014 31.417 284.207 31.066 283.358 30.714 282.508 30.448 281.633 30.269 280.731 30.09 279.83 30 278.919 30 278V254C30 253.081 30.09 252.17 30.269 251.269 30.448 250.367 30.714 249.492 31.066 248.642 31.417 247.793 31.849 246.986 32.359 246.222 32.87 245.458 33.45 244.75 34.101 244.101 34.751 243.45 35.458 242.87 36.222 242.359 36.986 241.849 37.793 241.417 38.642 241.066 39.492 240.714 40.367 240.448 41.269 240.269 42.17 240.09 43.081 240 44 240Z" fill="#fbf8f3"/>
<path transform="matrix(.75,0,0,.75,0,0)" stroke-width="1.5" stroke-linecap="butt" stroke-miterlimit="4" stroke-linejoin="miter" fill="none" stroke="#8a3b12" d="M44 240H164C164.919 240 165.83 240.09 166.731 240.269 167.633 240.448 168.508 240.714 169.358 241.066 170.207 241.417 171.014 241.849 171.778 242.359 172.542 242.87 173.249 243.45 173.899 244.101 174.549 244.75 175.13 245.458 175.641 246.222 176.151 246.986 176.583 247.793 176.934 248.642 177.286 249.492 177.552 250.367 177.731 251.269 177.91 252.17 178 253.081 178 254V278C178 278.919 177.91 279.83 177.731 280.731 177.552 281.633 177.286 282.508 176.934 283.358 176.583 284.207 176.151 285.014 175.641 285.778 175.13 286.542 174.549 287.249 173.899 287.899 173.249 288.549 172.542 289.13 171.778 289.641 171.014 290.151 170.207 290.582 169.358 290.934 168.508 291.286 167.633 291.552 166.731 291.731 165.83 291.91 164.919 292 164 292H44C43.081 292 42.17 291.91 41.269 291.731 40.367 291.552 39.492 291.286 38.642 290.934 37.793 290.582 36.986 290.151 36.222 289.641 35.458 289.13 34.751 288.549 34.101 287.899 33.45 287.249 32.87 286.542 32.359 285.778 31.849 285.014 31.417 284.207 31.066 283.358 30.714 282.508 30.448 281.633 30.269 280.731 30.09 279.83 30 278.919 30 278V254C30 253.081 30.09 252.17 30.269 251.269 30.448 250.367 30.714 249.492 31.066 248.642 31.417 247.793 31.849 246.986 32.359 246.222 32.87 245.458 33.45 244.75 34.101 244.101 34.751 243.45 35.458 242.87 36.222 242.359 36.986 241.849 37.793 241.417 38.642 241.066 39.492 240.714 40.367 240.448 41.269 240.269 42.17 240.09 43.081 240 44 240Z"/>
<use data-text="&#x0437;" xlink:href="#font_2_527" transform="matrix(9.75,0,0,-9.75,33.539,195.75)" fill="#1f1a17"/>
<use data-text="&#x0430;" xlink:href="#font_2_520" transform="matrix(9.75,0,0,-9.75,38.161,195.75)" fill="#1f1a17"/>
<use data-text="&#x043a;" xlink:href="#font_2_530" transform="matrix(9.75,0,0,-9.75,43.075,195.75)" fill="#1f1a17"/>
<use data-text="&#x0430;" xlink:href="#font_2_520" transform="matrix(9.75,0,0,-9.75,48.447,195.75)" fill="#1f1a17"/>
<use data-text="&#x0437;" xlink:href="#font_2_527" transform="matrix(9.75,0,0,-9.75,53.361,195.75)" fill="#1f1a17"/>
<use data-text=" " xlink:href="#font_2_3" transform="matrix(9.75,0,0,-9.75,57.982,195.75)" fill="#1f1a17"/>
<use data-text="&#x0441;" xlink:href="#font_2_537" transform="matrix(9.75,0,0,-9.75,60.332,195.75)" fill="#1f1a17"/>
<use data-text="&#x043e;" xlink:href="#font_2_534" transform="matrix(9.75,0,0,-9.75,64.759,195.75)" fill="#1f1a17"/>
<use data-text="&#x0440;" xlink:href="#font_2_536" transform="matrix(9.75,0,0,-9.75,70.014,195.75)" fill="#1f1a17"/>
<use data-text="&#x043e;" xlink:href="#font_2_534" transform="matrix(9.75,0,0,-9.75,75.581,195.75)" fill="#1f1a17"/>
<use data-text="&#x043a;" xlink:href="#font_2_530" transform="matrix(9.75,0,0,-9.75,80.836,195.75)" fill="#1f1a17"/>
<use data-text=" " xlink:href="#font_2_3" transform="matrix(9.75,0,0,-9.75,86.209,195.75)" fill="#1f1a17"/>
<use data-text="&#x0432;" xlink:href="#font_2_522" transform="matrix(9.75,0,0,-9.75,88.558,195.75)" fill="#1f1a17"/>
<use data-text="&#x043e;" xlink:href="#font_2_534" transform="matrix(9.75,0,0,-9.75,93.609,195.75)" fill="#1f1a17"/>
<use data-text="&#x0441;" xlink:href="#font_2_537" transform="matrix(9.75,0,0,-9.75,98.864,195.75)" fill="#1f1a17"/>
<use data-text="&#x0435;" xlink:href="#font_2_525" transform="matrix(9.75,0,0,-9.75,103.291,195.75)" fill="#1f1a17"/>
<use data-text="&#x043c;" xlink:href="#font_2_532" transform="matrix(9.75,0,0,-9.75,108,195.75)" fill="#1f1a17"/>
<use data-text="&#x044c;" xlink:href="#font_2_548" transform="matrix(9.75,0,0,-9.75,114.971,195.75)" fill="#1f1a17"/>
<use data-text="," xlink:href="#font_2_15" transform="matrix(9.75,0,0,-9.75,119.817,195.75)" fill="#1f1a17"/>
<use data-text="&#x0434;" xlink:href="#font_2_524" transform="matrix(9.75,0,0,-9.75,21.059,210)" fill="#8a3b12"/>
<use data-text="&#x0432;" xlink:href="#font_2_522" transform="matrix(9.75,0,0,-9.75,26.519,210)" fill="#8a3b12"/>
<use data-text="&#x0430;" xlink:href="#font_2_520" transform="matrix(9.75,0,0,-9.75,31.569,210)" fill="#8a3b12"/>
<use data-text="&#x0434;" xlink:href="#font_2_524" transform="matrix(9.75,0,0,-9.75,36.483,210)" fill="#8a3b12"/>
<use data-text="&#x0446;" xlink:href="#font_2_542" transform="matrix(9.75,0,0,-9.75,41.943,210)" fill="#8a3b12"/>
<use data-text="&#x0430;" xlink:href="#font_2_520" transform="matrix(9.75,0,0,-9.75,47.822,210)" fill="#8a3b12"/>
<use data-text="&#x0442;" xlink:href="#font_2_538" transform="matrix(9.75,0,0,-9.75,52.736,210)" fill="#8a3b12"/>
<use data-text="&#x044c;" xlink:href="#font_2_548" transform="matrix(9.75,0,0,-9.75,57.329,210)" fill="#8a3b12"/>
<use data-text=" " xlink:href="#font_2_3" transform="matrix(9.75,0,0,-9.75,62.174,210)" fill="#8a3b12"/>
<use data-text="&#x0434;" xlink:href="#font_2_524" transform="matrix(9.75,0,0,-9.75,64.524,210)" fill="#8a3b12"/>
<use data-text="&#x0432;" xlink:href="#font_2_522" transform="matrix(9.75,0,0,-9.75,69.984,210)" fill="#8a3b12"/>
<use data-text="&#x0430;" xlink:href="#font_2_520" transform="matrix(9.75,0,0,-9.75,75.035,210)" fill="#8a3b12"/>
<use data-text=" " xlink:href="#font_2_3" transform="matrix(9.75,0,0,-9.75,79.949,210)" fill="#8a3b12"/>
<use data-text="&#x0441;" xlink:href="#font_2_537" transform="matrix(9.75,0,0,-9.75,82.298,210)" fill="#8a3b12"/>
<use data-text="&#x0435;" xlink:href="#font_2_525" transform="matrix(9.75,0,0,-9.75,86.725,210)" fill="#8a3b12"/>
<use data-text="&#x043c;" xlink:href="#font_2_532" transform="matrix(9.75,0,0,-9.75,91.434,210)" fill="#8a3b12"/>
<use data-text="&#x043d;" xlink:href="#font_2_533" transform="matrix(9.75,0,0,-9.75,98.405,210)" fill="#8a3b12"/>
<use data-text="&#x0430;" xlink:href="#font_2_520" transform="matrix(9.75,0,0,-9.75,104.343,210)" fill="#8a3b12"/>
<use data-text="&#x0434;" xlink:href="#font_2_524" transform="matrix(9.75,0,0,-9.75,109.257,210)" fill="#8a3b12"/>
<use data-text="&#x0446;" xlink:href="#font_2_542" transform="matrix(9.75,0,0,-9.75,114.717,210)" fill="#8a3b12"/>
<use data-text="&#x0430;" xlink:href="#font_2_520" transform="matrix(9.75,0,0,-9.75,120.596,210)" fill="#8a3b12"/>
<use data-text="&#x0442;" xlink:href="#font_2_538" transform="matrix(9.75,0,0,-9.75,125.51,210)" fill="#8a3b12"/>
<use data-text="&#x044c;" xlink:href="#font_2_548" transform="matrix(9.75,0,0,-9.75,130.103,210)" fill="#8a3b12"/>
<use data-text="&#x0446;" xlink:href="#font_2_542" transform="matrix(9.75,0,0,-9.75,38.391,237)" fill="#6b625b"/>
<use data-text="&#x0438;" xlink:href="#font_2_528" transform="matrix(9.75,0,0,-9.75,44.27,237)" fill="#6b625b"/>
<use data-text="&#x0444;" xlink:href="#font_2_540" transform="matrix(9.75,0,0,-9.75,50.237,237)" fill="#6b625b"/>
<use data-text="&#x0440;" xlink:href="#font_2_536" transform="matrix(9.75,0,0,-9.75,57.579,237)" fill="#6b625b"/>
<use data-text="&#x044b;" xlink:href="#font_2_547" transform="matrix(9.75,0,0,-9.75,63.146,237)" fill="#6b625b"/>
<use data-text=" " xlink:href="#font_2_3" transform="matrix(9.75,0,0,-9.75,70.536,237)" fill="#6b625b"/>
<use data-text="&#x043f;" xlink:href="#font_2_535" transform="matrix(9.75,0,0,-9.75,72.886,237)" fill="#6b625b"/>
<use data-text="&#x043e;" xlink:href="#font_2_534" transform="matrix(9.75,0,0,-9.75,78.756,237)" fill="#6b625b"/>
<use data-text="&#x043f;" xlink:href="#font_2_535" transform="matrix(9.75,0,0,-9.75,84.011,237)" fill="#6b625b"/>
<use data-text="&#x043b;" xlink:href="#font_2_531" transform="matrix(9.75,0,0,-9.75,89.88,237)" fill="#6b625b"/>
<use data-text="&#x044b;" xlink:href="#font_2_547" transform="matrix(9.75,0,0,-9.75,95.545,237)" fill="#6b625b"/>
<use data-text="&#x043b;" xlink:href="#font_2_531" transform="matrix(9.75,0,0,-9.75,102.936,237)" fill="#6b625b"/>
<use data-text="&#x0438;" xlink:href="#font_2_528" transform="matrix(9.75,0,0,-9.75,108.6,237)" fill="#6b625b"/>
<use data-text=":" xlink:href="#font_2_29" transform="matrix(9.75,0,0,-9.75,114.567,237)" fill="#6b625b"/>
<use data-text="&#x043e;" xlink:href="#font_2_534" transform="matrix(9.75,0,0,-9.75,33.703,250.5)" fill="#6b625b"/>
<use data-text="&#x043d;" xlink:href="#font_2_533" transform="matrix(9.75,0,0,-9.75,38.958,250.5)" fill="#6b625b"/>
<use data-text="&#x0430;" xlink:href="#font_2_520" transform="matrix(9.75,0,0,-9.75,44.896,250.5)" fill="#6b625b"/>
<use data-text=" " xlink:href="#font_2_3" transform="matrix(9.75,0,0,-9.75,49.81,250.5)" fill="#6b625b"/>
<use data-text="&#x0438;" xlink:href="#font_2_528" transform="matrix(9.75,0,0,-9.75,52.16,250.5)" fill="#6b625b"/>
<use data-text="&#x0445;" xlink:href="#font_2_541" transform="matrix(9.75,0,0,-9.75,58.127,250.5)" fill="#6b625b"/>
<use data-text=" " xlink:href="#font_2_3" transform="matrix(9.75,0,0,-9.75,63.051,250.5)" fill="#6b625b"/>
<use data-text="&#x043f;" xlink:href="#font_2_535" transform="matrix(9.75,0,0,-9.75,65.4,250.5)" fill="#6b625b"/>
<use data-text="&#x0435;" xlink:href="#font_2_525" transform="matrix(9.75,0,0,-9.75,71.27,250.5)" fill="#6b625b"/>
<use data-text="&#x0440;" xlink:href="#font_2_536" transform="matrix(9.75,0,0,-9.75,75.979,250.5)" fill="#6b625b"/>
<use data-text="&#x0435;" xlink:href="#font_2_525" transform="matrix(9.75,0,0,-9.75,81.546,250.5)" fill="#6b625b"/>
<use data-text="&#x0441;" xlink:href="#font_2_537" transform="matrix(9.75,0,0,-9.75,86.256,250.5)" fill="#6b625b"/>
<use data-text="&#x043e;" xlink:href="#font_2_534" transform="matrix(9.75,0,0,-9.75,90.682,250.5)" fill="#6b625b"/>
<use data-text="&#x0431;" xlink:href="#font_2_521" transform="matrix(9.75,0,0,-9.75,95.937,250.5)" fill="#6b625b"/>
<use data-text="&#x0440;" xlink:href="#font_2_536" transform="matrix(9.75,0,0,-9.75,101.212,250.5)" fill="#6b625b"/>
<use data-text="&#x0430;" xlink:href="#font_2_520" transform="matrix(9.75,0,0,-9.75,106.779,250.5)" fill="#6b625b"/>
<use data-text="&#x043b;" xlink:href="#font_2_531" transform="matrix(9.75,0,0,-9.75,111.693,250.5)" fill="#6b625b"/>
<use data-text="&#x0430;" xlink:href="#font_2_520" transform="matrix(9.75,0,0,-9.75,117.358,250.5)" fill="#6b625b"/>
<use data-text="&#x0442;" xlink:href="#font_2_538" transform="matrix(9.75,0,0,-9.75,166.734,102)" fill="#2e6b4f"/>
<use data-text="&#x0430;" xlink:href="#font_2_520" transform="matrix(9.75,0,0,-9.75,171.327,102)" fill="#2e6b4f"/>
<use data-text="&#x043a;" xlink:href="#font_2_530" transform="matrix(9.75,0,0,-9.75,176.241,102)" fill="#2e6b4f"/>
<use data-text=":" xlink:href="#font_2_29" transform="matrix(9.75,0,0,-9.75,181.613,102)" fill="#2e6b4f"/>
<use data-text=" " xlink:href="#font_2_3" transform="matrix(9.75,0,0,-9.75,184.665,102)" fill="#2e6b4f"/>
<use data-text="&quot;" xlink:href="#font_2_5" transform="matrix(9.75,0,0,-9.75,187.014,102)" fill="#2e6b4f"/>
<use data-text="&#x043f;" xlink:href="#font_2_535" transform="matrix(9.75,0,0,-9.75,191.031,102)" fill="#2e6b4f"/>
<use data-text="&#x043e;" xlink:href="#font_2_534" transform="matrix(9.75,0,0,-9.75,196.901,102)" fill="#2e6b4f"/>
<use data-text="&#x0432;" xlink:href="#font_2_522" transform="matrix(9.75,0,0,-9.75,202.156,102)" fill="#2e6b4f"/>
<use data-text="&#x0442;" xlink:href="#font_2_538" transform="matrix(9.75,0,0,-9.75,207.207,102)" fill="#2e6b4f"/>
<use data-text="&#x043e;" xlink:href="#font_2_534" transform="matrix(9.75,0,0,-9.75,211.799,102)" fill="#2e6b4f"/>
<use data-text="&#x0440;" xlink:href="#font_2_536" transform="matrix(9.75,0,0,-9.75,217.054,102)" fill="#2e6b4f"/>
<use data-text="&#x0438;" xlink:href="#font_2_528" transform="matrix(9.75,0,0,-9.75,222.621,102)" fill="#2e6b4f"/>
<use data-text=" " xlink:href="#font_2_3" transform="matrix(9.75,0,0,-9.75,228.588,102)" fill="#2e6b4f"/>
<use data-text="&#x0434;" xlink:href="#font_2_524" transform="matrix(9.75,0,0,-9.75,230.938,102)" fill="#2e6b4f"/>
<use data-text="&#x043e;" xlink:href="#font_2_534" transform="matrix(9.75,0,0,-9.75,236.398,102)" fill="#2e6b4f"/>
<use data-text="&#x0441;" xlink:href="#font_2_537" transform="matrix(9.75,0,0,-9.75,241.653,102)" fill="#2e6b4f"/>
<use data-text="&#x043b;" xlink:href="#font_2_531" transform="matrix(9.75,0,0,-9.75,246.08,102)" fill="#2e6b4f"/>
<use data-text="&#x043e;" xlink:href="#font_2_534" transform="matrix(9.75,0,0,-9.75,251.745,102)" fill="#2e6b4f"/>
<use data-text="&#x0432;" xlink:href="#font_2_522" transform="matrix(9.75,0,0,-9.75,257,102)" fill="#2e6b4f"/>
<use data-text="&#x043d;" xlink:href="#font_2_533" transform="matrix(9.75,0,0,-9.75,262.05,102)" fill="#2e6b4f"/>
<use data-text="&#x043e;" xlink:href="#font_2_534" transform="matrix(9.75,0,0,-9.75,267.988,102)" fill="#2e6b4f"/>
<use data-text="&quot;" xlink:href="#font_2_5" transform="matrix(9.75,0,0,-9.75,273.243,102)" fill="#2e6b4f"/>
<path transform="matrix(.75,0,0,.75,222,147)" d="M0-36C12-20 21-8 21 3 21 4.379 20.865 5.745 20.596 7.097 20.327 8.449 19.929 9.762 19.401 11.036 18.874 12.31 18.227 13.52 17.461 14.667 16.695 15.813 15.824 16.874 14.849 17.849 13.874 18.824 12.813 19.695 11.667 20.461 10.52 21.227 9.31 21.874 8.036 22.401 6.762 22.929 5.449 23.327 4.097 23.596 2.745 23.865 1.379 24 0 24-1.379 24-2.745 23.865-4.097 23.596-5.449 23.327-6.762 22.929-8.036 22.401-9.31 21.874-10.52 21.227-11.667 20.461-12.813 19.695-13.874 18.824-14.849 17.849-15.824 16.874-16.695 15.813-17.461 14.667-18.227 13.52-18.874 12.31-19.401 11.036-19.929 9.762-20.327 8.449-20.596 7.097-20.865 5.745-21 4.379-21 3-21-8-12-20 0-36Z" fill="#f2ebe1"/>
<path transform="matrix(.75,0,0,.75,222,147)" stroke-width="2" stroke-linecap="butt" stroke-miterlimit="4" stroke-linejoin="miter" fill="none" stroke="#1f1a17" d="M0-36C12-20 21-8 21 3 21 4.379 20.865 5.745 20.596 7.097 20.327 8.449 19.929 9.762 19.401 11.036 18.874 12.31 18.227 13.52 17.461 14.667 16.695 15.813 15.824 16.874 14.849 17.849 13.874 18.824 12.813 19.695 11.667 20.461 10.52 21.227 9.31 21.874 8.036 22.401 6.762 22.929 5.449 23.327 4.097 23.596 2.745 23.865 1.379 24 0 24-1.379 24-2.745 23.865-4.097 23.596-5.449 23.327-6.762 22.929-8.036 22.401-9.31 21.874-10.52 21.227-11.667 20.461-12.813 19.695-13.874 18.824-14.849 17.849-15.824 16.874-16.695 15.813-17.461 14.667-18.227 13.52-18.874 12.31-19.401 11.036-19.929 9.762-20.327 8.449-20.596 7.097-20.865 5.745-21 4.379-21 3-21-8-12-20 0-36Z"/>
<path transform="matrix(.75,0,0,.75,222,147)" d="M-5 3C-5 3.265-5.051 3.52-5.152 3.765-5.254 4.01-5.398 4.227-5.586 4.414-5.773 4.602-5.99 4.746-6.235 4.848-6.48 4.949-6.735 5-7 5-7.265 5-7.52 4.949-7.765 4.848-8.01 4.746-8.227 4.602-8.414 4.414-8.602 4.227-8.746 4.01-8.848 3.765-8.949 3.52-9 3.265-9 3-9 2.735-8.949 2.48-8.848 2.235-8.746 1.99-8.602 1.773-8.414 1.586-8.227 1.398-8.01 1.254-7.765 1.152-7.52 1.051-7.265 1-7 1-6.735 1-6.48 1.051-6.235 1.152-5.99 1.254-5.773 1.398-5.586 1.586-5.398 1.773-5.254 1.99-5.152 2.235-5.051 2.48-5 2.735-5 3Z" fill="#1f1a17"/>
<path transform="matrix(.75,0,0,.75,222,147)" d="M9 3C9 3.265 8.949 3.52 8.848 3.765 8.746 4.01 8.602 4.227 8.414 4.414 8.227 4.602 8.01 4.746 7.765 4.848 7.52 4.949 7.265 5 7 5 6.735 5 6.48 4.949 6.235 4.848 5.99 4.746 5.773 4.602 5.586 4.414 5.398 4.227 5.254 4.01 5.152 3.765 5.051 3.52 5 3.265 5 3 5 2.735 5.051 2.48 5.152 2.235 5.254 1.99 5.398 1.773 5.586 1.586 5.773 1.398 5.99 1.254 6.235 1.152 6.48 1.051 6.735 1 7 1 7.265 1 7.52 1.051 7.765 1.152 8.01 1.254 8.227 1.398 8.414 1.586 8.602 1.773 8.746 1.99 8.848 2.235 8.949 2.48 9 2.735 9 3Z" fill="#1f1a17"/>
<path transform="matrix(.75,0,0,.75,222,147)" stroke-width="1.6" stroke-linecap="round" stroke-miterlimit="4" stroke-linejoin="miter" fill="none" stroke="#1f1a17" d="M-6 13C-2 16.333 2 16.333 6 13"/>
<path transform="matrix(.75,0,0,.75,0,0)" d="M236 240H356C356.919 240 357.83 240.09 358.731 240.269 359.633 240.448 360.508 240.714 361.358 241.066 362.207 241.417 363.014 241.849 363.778 242.359 364.542 242.87 365.249 243.45 365.899 244.101 366.549 244.75 367.13 245.458 367.64 246.222 368.151 246.986 368.582 247.793 368.934 248.642 369.286 249.492 369.552 250.367 369.731 251.269 369.91 252.17 370 253.081 370 254V278C370 278.919 369.91 279.83 369.731 280.731 369.552 281.633 369.286 282.508 368.934 283.358 368.582 284.207 368.151 285.014 367.64 285.778 367.13 286.542 366.549 287.249 365.899 287.899 365.249 288.549 364.542 289.13 363.778 289.641 363.014 290.151 362.207 290.582 361.358 290.934 360.508 291.286 359.633 291.552 358.731 291.731 357.83 291.91 356.919 292 356 292H236C235.081 292 234.17 291.91 233.269 291.731 232.367 291.552 231.492 291.286 230.642 290.934 229.793 290.582 228.986 290.151 228.222 289.641 227.458 289.13 226.75 288.549 226.101 287.899 225.45 287.249 224.87 286.542 224.359 285.778 223.849 285.014 223.417 284.207 223.066 283.358 222.714 282.508 222.448 281.633 222.269 280.731 222.09 279.83 222 278.919 222 278V254C222 253.081 222.09 252.17 222.269 251.269 222.448 250.367 222.714 249.492 223.066 248.642 223.417 247.793 223.849 246.986 224.359 246.222 224.87 245.458 225.45 244.75 226.101 244.101 226.75 243.45 227.458 242.87 228.222 242.359 228.986 241.849 229.793 241.417 230.642 241.066 231.492 240.714 232.367 240.448 233.269 240.269 234.17 240.09 235.081 240 236 240Z" fill="#fbf8f3"/>
<path transform="matrix(.75,0,0,.75,0,0)" stroke-width="1.5" stroke-linecap="butt" stroke-miterlimit="4" stroke-linejoin="miter" fill="none" stroke="#2e6b4f" d="M236 240H356C356.919 240 357.83 240.09 358.731 240.269 359.633 240.448 360.508 240.714 361.358 241.066 362.207 241.417 363.014 241.849 363.778 242.359 364.542 242.87 365.249 243.45 365.899 244.101 366.549 244.75 367.13 245.458 367.64 246.222 368.151 246.986 368.582 247.793 368.934 248.642 369.286 249.492 369.552 250.367 369.731 251.269 369.91 252.17 370 253.081 370 254V278C370 278.919 369.91 279.83 369.731 280.731 369.552 281.633 369.286 282.508 368.934 283.358 368.582 284.207 368.151 285.014 367.64 285.778 367.13 286.542 366.549 287.249 365.899 287.899 365.249 288.549 364.542 289.13 363.778 289.641 363.014 290.151 362.207 290.582 361.358 290.934 360.508 291.286 359.633 291.552 358.731 291.731 357.83 291.91 356.919 292 356 292H236C235.081 292 234.17 291.91 233.269 291.731 232.367 291.552 231.492 291.286 230.642 290.934 229.793 290.582 228.986 290.151 228.222 289.641 227.458 289.13 226.75 288.549 226.101 287.899 225.45 287.249 224.87 286.542 224.359 285.778 223.849 285.014 223.417 284.207 223.066 283.358 222.714 282.508 222.448 281.633 222.269 280.731 222.09 279.83 222 278.919 222 278V254C222 253.081 222.09 252.17 222.269 251.269 222.448 250.367 222.714 249.492 223.066 248.642 223.417 247.793 223.849 246.986 224.359 246.222 224.87 245.458 225.45 244.75 226.101 244.101 226.75 243.45 227.458 242.87 228.222 242.359 228.986 241.849 229.793 241.417 230.642 241.066 231.492 240.714 232.367 240.448 233.269 240.269 234.17 240.09 235.081 240 236 240Z"/>
<use data-text="4" xlink:href="#font_2_23" transform="matrix(12,0,0,-12,200.484,204)" fill="#2e6b4f"/>
<use data-text="8" xlink:href="#font_2_27" transform="matrix(12,0,0,-12,207.264,204)" fill="#2e6b4f"/>
<use data-text="-" xlink:href="#font_2_16" transform="matrix(12,0,0,-12,214.416,204)" fill="#2e6b4f"/>
<use data-text="2" xlink:href="#font_2_21" transform="matrix(12,0,0,-12,218.904,204)" fill="#2e6b4f"/>
<use data-text="2" xlink:href="#font_2_21" transform="matrix(12,0,0,-12,225.612,204)" fill="#2e6b4f"/>
<use data-text="1" xlink:href="#font_2_20" transform="matrix(12,0,0,-12,232.32,204)" fill="#2e6b4f"/>
<use data-text="7" xlink:href="#font_2_26" transform="matrix(12,0,0,-12,237.48,204)" fill="#2e6b4f"/>
<use data-text="&#x0441;" xlink:href="#font_2_537" transform="matrix(9.75,0,0,-9.75,169.289,237)" fill="#6b625b"/>
<use data-text="&#x043a;" xlink:href="#font_2_530" transform="matrix(9.75,0,0,-9.75,173.716,237)" fill="#6b625b"/>
<use data-text="&#x043e;" xlink:href="#font_2_534" transform="matrix(9.75,0,0,-9.75,179.088,237)" fill="#6b625b"/>
<use data-text="&#x043f;" xlink:href="#font_2_535" transform="matrix(9.75,0,0,-9.75,184.343,237)" fill="#6b625b"/>
<use data-text="&#x0438;" xlink:href="#font_2_528" transform="matrix(9.75,0,0,-9.75,190.213,237)" fill="#6b625b"/>
<use data-text="&#x0440;" xlink:href="#font_2_536" transform="matrix(9.75,0,0,-9.75,196.18,237)" fill="#6b625b"/>
<use data-text="&#x043e;" xlink:href="#font_2_534" transform="matrix(9.75,0,0,-9.75,201.747,237)" fill="#6b625b"/>
<use data-text="&#x0432;" xlink:href="#font_2_522" transform="matrix(9.75,0,0,-9.75,207.002,237)" fill="#6b625b"/>
<use data-text="&#x0430;" xlink:href="#font_2_520" transform="matrix(9.75,0,0,-9.75,212.053,237)" fill="#6b625b"/>
<use data-text="&#x043d;" xlink:href="#font_2_533" transform="matrix(9.75,0,0,-9.75,216.967,237)" fill="#6b625b"/>
<use data-text="&#x043e;" xlink:href="#font_2_534" transform="matrix(9.75,0,0,-9.75,222.904,237)" fill="#6b625b"/>
<use data-text=" " xlink:href="#font_2_3" transform="matrix(9.75,0,0,-9.75,228.16,237)" fill="#6b625b"/>
<use data-text="&#x0438;" xlink:href="#font_2_528" transform="matrix(9.75,0,0,-9.75,230.509,237)" fill="#6b625b"/>
<use data-text="&#x0437;" xlink:href="#font_2_527" transform="matrix(9.75,0,0,-9.75,236.476,237)" fill="#6b625b"/>
<use data-text=" " xlink:href="#font_2_3" transform="matrix(9.75,0,0,-9.75,241.098,237)" fill="#6b625b"/>
<use data-text="&#x0442;" xlink:href="#font_2_538" transform="matrix(9.75,0,0,-9.75,243.448,237)" fill="#6b625b"/>
<use data-text="&#x0435;" xlink:href="#font_2_525" transform="matrix(9.75,0,0,-9.75,248.04,237)" fill="#6b625b"/>
<use data-text="&#x043a;" xlink:href="#font_2_530" transform="matrix(9.75,0,0,-9.75,252.749,237)" fill="#6b625b"/>
<use data-text="&#x0441;" xlink:href="#font_2_537" transform="matrix(9.75,0,0,-9.75,258.121,237)" fill="#6b625b"/>
<use data-text="&#x0442;" xlink:href="#font_2_538" transform="matrix(9.75,0,0,-9.75,262.548,237)" fill="#6b625b"/>
<use data-text="&#x0430;" xlink:href="#font_2_520" transform="matrix(9.75,0,0,-9.75,267.14,237)" fill="#6b625b"/>
<use data-text="," xlink:href="#font_2_15" transform="matrix(9.75,0,0,-9.75,272.054,237)" fill="#6b625b"/>
<use data-text="&#x043a;" xlink:href="#font_2_530" transform="matrix(9.75,0,0,-9.75,203.695,250.5)" fill="#6b625b"/>
<use data-text="&#x0430;" xlink:href="#font_2_520" transform="matrix(9.75,0,0,-9.75,209.068,250.5)" fill="#6b625b"/>
<use data-text="&#x043a;" xlink:href="#font_2_530" transform="matrix(9.75,0,0,-9.75,213.982,250.5)" fill="#6b625b"/>
<use data-text=" " xlink:href="#font_2_3" transform="matrix(9.75,0,0,-9.75,219.354,250.5)" fill="#6b625b"/>
<use data-text="&#x0435;" xlink:href="#font_2_525" transform="matrix(9.75,0,0,-9.75,221.704,250.5)" fill="#6b625b"/>
<use data-text="&#x0441;" xlink:href="#font_2_537" transform="matrix(9.75,0,0,-9.75,226.413,250.5)" fill="#6b625b"/>
<use data-text="&#x0442;" xlink:href="#font_2_538" transform="matrix(9.75,0,0,-9.75,230.839,250.5)" fill="#6b625b"/>
<use data-text="&#x044c;" xlink:href="#font_2_548" transform="matrix(9.75,0,0,-9.75,235.432,250.5)" fill="#6b625b"/>
<use data-text="&#x0431;" xlink:href="#font_3_521" transform="matrix(9.75,0,0,-9.75,43.488,274.5)" fill="#6b625b"/>
<use data-text="&#x0443;" xlink:href="#font_3_539" transform="matrix(9.75,0,0,-9.75,48.724,274.5)" fill="#6b625b"/>
<use data-text="&#x043a;" xlink:href="#font_3_530" transform="matrix(9.75,0,0,-9.75,54.184,274.5)" fill="#6b625b"/>
<use data-text="&#x0432;" xlink:href="#font_3_522" transform="matrix(9.75,0,0,-9.75,59.449,274.5)" fill="#6b625b"/>
<use data-text="&#x044b;" xlink:href="#font_3_547" transform="matrix(9.75,0,0,-9.75,64.47,274.5)" fill="#6b625b"/>
<use data-text=" " xlink:href="#font_3_3" transform="matrix(9.75,0,0,-9.75,71.656,274.5)" fill="#6b625b"/>
<use data-text="&#x0438;" xlink:href="#font_3_528" transform="matrix(9.75,0,0,-9.75,74.006,274.5)" fill="#6b625b"/>
<use data-text=" " xlink:href="#font_3_3" transform="matrix(9.75,0,0,-9.75,79.612,274.5)" fill="#6b625b"/>
<use data-text="&#x0446;" xlink:href="#font_3_542" transform="matrix(9.75,0,0,-9.75,81.962,274.5)" fill="#6b625b"/>
<use data-text="&#x0438;" xlink:href="#font_3_528" transform="matrix(9.75,0,0,-9.75,87.568,274.5)" fill="#6b625b"/>
<use data-text="&#x0444;" xlink:href="#font_3_540" transform="matrix(9.75,0,0,-9.75,93.174,274.5)" fill="#6b625b"/>
<use data-text="&#x0440;" xlink:href="#font_3_536" transform="matrix(9.75,0,0,-9.75,100.389,274.5)" fill="#6b625b"/>
<use data-text="&#x044b;" xlink:href="#font_3_547" transform="matrix(9.75,0,0,-9.75,106.025,274.5)" fill="#6b625b"/>
<use data-text=" " xlink:href="#font_3_3" transform="matrix(9.75,0,0,-9.75,113.211,274.5)" fill="#6b625b"/>
<use data-text="&#x0441;" xlink:href="#font_3_537" transform="matrix(9.75,0,0,-9.75,115.56,274.5)" fill="#6b625b"/>
<use data-text="&#x0447;" xlink:href="#font_3_543" transform="matrix(9.75,0,0,-9.75,119.987,274.5)" fill="#6b625b"/>
<use data-text="&#x0438;" xlink:href="#font_3_528" transform="matrix(9.75,0,0,-9.75,125.437,274.5)" fill="#6b625b"/>
<use data-text="&#x0442;" xlink:href="#font_3_538" transform="matrix(9.75,0,0,-9.75,131.043,274.5)" fill="#6b625b"/>
<use data-text="&#x0430;" xlink:href="#font_3_520" transform="matrix(9.75,0,0,-9.75,139.614,274.5)" fill="#6b625b"/>
<use data-text="&#x0435;" xlink:href="#font_3_525" transform="matrix(9.75,0,0,-9.75,145.2,274.5)" fill="#6b625b"/>
<use data-text="&#x0442;" xlink:href="#font_3_538" transform="matrix(9.75,0,0,-9.75,149.802,274.5)" fill="#6b625b"/>
<use data-text=" " xlink:href="#font_3_3" transform="matrix(9.75,0,0,-9.75,158.373,274.5)" fill="#6b625b"/>
<use data-text="&#x0438;" xlink:href="#font_3_528" transform="matrix(9.75,0,0,-9.75,160.722,274.5)" fill="#6b625b"/>
<use data-text="&#x043d;" xlink:href="#font_3_533" transform="matrix(9.75,0,0,-9.75,166.329,274.5)" fill="#6b625b"/>
<use data-text="&#x0441;" xlink:href="#font_3_537" transform="matrix(9.75,0,0,-9.75,172.062,274.5)" fill="#6b625b"/>
<use data-text="&#x0442;" xlink:href="#font_3_538" transform="matrix(9.75,0,0,-9.75,176.488,274.5)" fill="#6b625b"/>
<use data-text="&#x0440;" xlink:href="#font_3_536" transform="matrix(9.75,0,0,-9.75,185.058,274.5)" fill="#6b625b"/>
<use data-text="&#x0443;" xlink:href="#font_3_539" transform="matrix(9.75,0,0,-9.75,190.694,274.5)" fill="#6b625b"/>
<use data-text="&#x043c;" xlink:href="#font_3_532" transform="matrix(9.75,0,0,-9.75,196.154,274.5)" fill="#6b625b"/>
<use data-text="&#x0435;" xlink:href="#font_3_525" transform="matrix(9.75,0,0,-9.75,203.369,274.5)" fill="#6b625b"/>
<use data-text="&#x043d;" xlink:href="#font_3_533" transform="matrix(9.75,0,0,-9.75,207.971,274.5)" fill="#6b625b"/>
<use data-text="&#x0442;" xlink:href="#font_3_538" transform="matrix(9.75,0,0,-9.75,213.704,274.5)" fill="#6b625b"/>
<use data-text="," xlink:href="#font_3_15" transform="matrix(9.75,0,0,-9.75,222.274,274.5)" fill="#6b625b"/>
<use data-text=" " xlink:href="#font_3_3" transform="matrix(9.75,0,0,-9.75,224.907,274.5)" fill="#6b625b"/>
<use data-text="&#x043d;" xlink:href="#font_3_533" transform="matrix(9.75,0,0,-9.75,227.256,274.5)" fill="#6b625b"/>
<use data-text="&#x0435;" xlink:href="#font_3_525" transform="matrix(9.75,0,0,-9.75,232.989,274.5)" fill="#6b625b"/>
<use data-text=" " xlink:href="#font_3_3" transform="matrix(9.75,0,0,-9.75,237.591,274.5)" fill="#6b625b"/>
<use data-text="&#x043e;" xlink:href="#font_3_534" transform="matrix(9.75,0,0,-9.75,239.941,274.5)" fill="#6b625b"/>
<use data-text="&#x043d;" xlink:href="#font_3_533" transform="matrix(9.75,0,0,-9.75,245.177,274.5)" fill="#6b625b"/>
<use data-text="&#x0430;" xlink:href="#font_3_520" transform="matrix(9.75,0,0,-9.75,250.91,274.5)" fill="#6b625b"/>
</g>
</svg>
